<?xml version="1.0" standalone="no"?>
<!DOCTYPE svg PUBLIC "-//W3C//DTD SVG 1.1//EN" "http://www.w3.org/Graphics/SVG/1.1/DTD/svg11.dtd" >
<svg xmlns="http://www.w3.org/2000/svg">
<metadata></metadata>
<defs>
<font id="true_crimesregular" horiz-adv-x="403" >
<font-face units-per-em="1000" ascent="800" descent="-200" />
<missing-glyph horiz-adv-x="399" />
<glyph unicode="&#xd;" horiz-adv-x="1000" />
<glyph unicode=" "  horiz-adv-x="399" />
<glyph unicode="&#x09;" horiz-adv-x="399" />
<glyph unicode="&#xa0;" horiz-adv-x="399" />
<glyph unicode="!" horiz-adv-x="336" d="M203 700q15 0 22 -11q1 -5 0 -9.5t0 -9.5q0 -2 -0.5 -4.5t3.5 -4.5q3 -2 8 1q7 7 8 16t11 13q4 4 9.5 2t10.5 1v-1q5 0 11 -0.5t11 -0.5l2 -1q2 1 4.5 0t4.5 -1q8 -4 11 -11q2 -9 -0.5 -14t-4.5 -13q-36 -112 -65.5 -227t-52.5 -226q-4 -2 -7.5 -4.5t-8.5 -3.5 q-11 -1 -21.5 0t-20.5 0q-14 0 -28.5 -1t-28.5 4q-2 3 -4 7t-4 9q-3 4 -8 5.5t-10 3.5t-8.5 5t-3.5 10q4 25 7.5 50t7.5 50q8 40 14 77t14 76q8 36 14.5 74.5t17.5 75.5q2 11 4.5 21.5t4.5 22.5q1 4 3 8.5t7 6.5q4 5 10 3.5t12 -0.5q12 1 22.5 0t21.5 1zM111 165l1 -1 q1 2 2.5 0.5t3.5 0.5q6 1 15 -1t15 -9q6 -6 17 -6q12 0 17 -7q-1 -5 0 -11t-1 -10q1 -2 0.5 -3t0.5 -2q-2 -1 -2 -4q0 -2 -2 -4q-3 -17 -6.5 -35.5t-5.5 -34.5h1q-2 0 -1.5 -3t-0.5 -4l1 1q-3 -15 -12 -24q-2 -2 -3 -2.5t-2 -2.5q-5 -1 -9 -2.5t-9 0.5l-1 -1 q-13 1 -26.5 0.5t-26.5 2.5q-7 3 -11 9q1 1 0 1t-1 2h-1q2 8 -6 14q-2 1 -5 -0.5l-5 -2.5q-2 -5 -5 -8q0 -3 -2.5 -5.5l-4.5 -4.5t-5.5 -1.5t-6.5 1.5q-8 5 -6 15t2 18q1 24 5 49t6 49q2 2 1.5 6t2.5 6q5 10 14.5 12t18.5 2q11 -1 21.5 -0.5t21.5 0.5z" />
<glyph unicode="0" horiz-adv-x="627" d="M406 699q-34 3 -74 -5q-10 -2 -20 -5t-17 -11q-2 -5 -3 -12t1 -12q3 -7 -5 -12q-3 -1 -5 0t-5 1q-5 5 -11 9.5t-14 2.5q-43 -16 -80.5 -45t-66.5 -67q-8 -8 -8 -19t-3 -21q-12 -20 -22 -40t-19 -42q-25 -59 -33.5 -127t9.5 -131q9 -34 26.5 -66t44.5 -53q26 -21 57 -31.5 t63 -12t63 5t58 18.5l1 -1l2 1q1 -1 0 -1t-1 -1l2 2v2l1 -1q11 8 19.5 11t19.5 11q1 1 2 0.5t1 1.5l1 -1q5 5 12 10l14 10q17 12 31.5 28t30.5 31q25 32 47.5 64t38.5 69q31 63 42 135t-12 141q-13 41 -37.5 76.5t-60.5 58.5q-41 26 -89 29zM335 616q0 -7 -5.5 -8t-9.5 -4 q-2 -1 -4.5 -2t-5.5 1q-4 4 -1 9q3 4 8 6l10 4q8 0 8 -6zM417 456q9 -52 -6 -102t-38 -97q-14 -26 -33 -51.5t-48 -35.5q-19 -9 -43 -7.5t-39 15.5q-12 8 -19.5 22.5t-9.5 27.5h-1q-2 8 -3 20t1 20l-1 1q1 3 1 7q0 5 2 10q-1 3 0 7l2 8q4 16 7.5 31t11.5 29q0 2 1 5t3 5l2 1 q-2 1 -1 1t0 1q2 3 3 6t4 5q5 11 12 20t14 19q4 3 7 7.5t8 7.5q18 17 36.5 29t42.5 18q5 2 9 6t4 10v5q1 2 0 1.5t-1 0.5q-1 5 -2 9t1 9q8 2 14.5 -1.5t13.5 -6.5q17 -10 29.5 -26.5t15.5 -36.5z" />
<glyph unicode="1" horiz-adv-x="334" d="M202 700q3 -3 6 -3q2 -3 5 -6t1 -7q2 -5 1 -10t4 -8q11 0 14.5 10.5t10.5 15.5q5 2 10.5 4t11.5 1q9 -1 19 0t18 -1q6 -2 9.5 -7t3.5 -10q-1 -8 -3.5 -16t-3.5 -15q-4 -11 -8.5 -24t-7.5 -25l2 -2l-3 1q-2 -12 -6.5 -24.5t3.5 -24.5q3 -5 5.5 -11.5t0.5 -14.5 q-6 -23 -13.5 -47.5t-14.5 -48.5q-8 -28 -14.5 -56t-14.5 -55q-4 -19 -8 -35t-8 -35q-2 -1 -0.5 -2t-0.5 -1q0 -2 -0.5 -4t-0.5 -4v-3l-1 -1v1q-1 -1 -0.5 -1.5l0.5 -0.5q-2 -2 -1.5 -3t-0.5 -3q-1 -8 -3.5 -15t-3.5 -14h2q-5 -13 -6 -23q-2 -7 -4 -14.5t-2 -14.5 q-1 0 -1.5 -1.5t0.5 -1.5q-3 -11 -4.5 -20t-3.5 -20q0 -4 -1.5 -7t-1.5 -7l1 -1h-1q-2 -1 0 -2t-1 -1q-4 -24 -7 -46q-1 -3 -1.5 -6.5t-1.5 -5.5q1 -2 0 -3t1 -3q-1 -2 -2.5 -3.5t-1.5 -4.5l-1 1q-4 -6 -9 -8q-5 0 -9 -2t-8 0q-2 -1 -2.5 0t-2.5 1q-3 -1 -8 -1 q-1 1 -2.5 0.5t-3.5 0.5q-4 -2 -7.5 -0.5t-7.5 -0.5q0 1 -1 1q-1 -2 -1 -1q0 2 -1 1l-19 1q-4 0 -5 4t-4 6q-2 8 -0.5 16t-4.5 14q-3 1 -5.5 -0.5t-4.5 -3.5t-3 -6q-2 -1 -1 -3t-1 -4l-4 -10t-7 -9q-4 -1 -6 -2.5t-7 -0.5q-9 1 -15 12q5 54 10 106.5t10 107.5q5 33 9.5 67 t10.5 67q2 14 4.5 28t4.5 30v-1q2 10 4 22.5t2 23.5q-2 10 -10 15q-13 6 -25 12t-23 14q-4 4 -3 8t-1 9l8 15q38 34 74.5 69t62.5 80q2 2 4.5 4t2.5 4l2 1v-1q8 4 16 2.5t16 0.5z" />
<glyph unicode="2" d="M230 696q30 -6 57.5 -21.5t45.5 -39.5q25 -29 36.5 -63.5t16.5 -71.5q3 -48 -8 -92.5t-33 -85t-52 -76t-65 -65.5q-3 -3 -6 -6.5t0 -8.5l5 -5q31 2 62 2h64q12 0 17 -8q2 -3 2 -7v-5v1q-2 -7 -3.5 -14.5t-9.5 -10.5q-8 -4 -15 -4q-1 -2 -2 -1t-3 -1l-4 -2q0 -8 4.5 -10.5 t10.5 -4t11.5 -4t7.5 -9.5q0 -10 -2 -18t-4 -18v-2v1q-2 -5 -4.5 -12t-4.5 -12v-2l-1 1q-2 -6 -7.5 -11t-10.5 -7q-17 -2 -33.5 -1t-33.5 0q-58 3 -116 1t-115 -3q-11 1 -17 8q-6 11 -3 21t6 21q5 7 13.5 9t6.5 13q-4 6 -10.5 7.5t-8.5 9.5q1 16 3.5 31.5t4.5 31.5 q1 5 4 9.5t5 9.5q8 8 13.5 14t13.5 14q76 84 130 191q8 17 13 35.5t2 38.5h-1q1 3 -0.5 7t-2.5 8q-10 22 -26 31h-4h1v1q-2 1 -4 2.5t-4 0.5l-1 1l1 -1v1q-1 2 -1.5 0.5t-0.5 -0.5l1 1q-6 2 -10.5 2.5t-9.5 2.5q-24 2 -44 -6q-1 1 -3 1q-1 0 -3 1q-12 9 -12 21q0 13 -2 27 q2 6 5 12t9 10q9 4 18 3.5t14 8.5q2 3 -0.5 4.5t-4.5 3.5q-5 5 -14 3t-16 -2h1q-6 2 -8 2q-3 2 -3.5 5t-3.5 4q-3 11 -3.5 23.5t-1.5 23.5q3 15 16.5 19.5t26.5 7.5q4 1 7 1t7 2q11 2 22 2t23 2q11 -1 24 -1q14 0 25 -3z" />
<glyph unicode="3" d="M358 630q5 -8 10 -17.5t9 -20.5q1 -5 3.5 -11t2.5 -12q3 -8 3 -16t2 -17q0 -38 -15 -72.5t-39 -63.5q-8 -11 -19 -21t-22 -19q-6 -6 -5 -10q-3 0 -0.5 -2.5t-1.5 -3.5q3 0 0.5 -3.5t1.5 -2.5q4 -14 12 -25.5t13 -25.5q13 -32 11 -70.5t-19 -70.5q-25 -54 -74.5 -86.5 t-104.5 -48.5q-11 -2 -22.5 -4.5t-23.5 -4.5q-5 1 -9.5 0t-10.5 -1q-10 -1 -18.5 -1.5t-19.5 1.5q-1 1 -5 7q-2 5 0 11t9 8q8 3 18 3.5t16 10.5q0 5 -6 7q-7 2 -11 0q-2 1 -5 0.5t-6 1.5q-2 2 -4 3t-4 3q-2 6 -1 11t3 10q1 13 4 25.5t4 25.5l1 1l2 10t6 9l5 4q24 -2 45 5.5 t38 21.5q13 11 20.5 26.5t4.5 32.5q-3 13 -13.5 22.5t-23.5 11.5q-5 1 -9.5 1.5t-7.5 0.5q-4 -1 -7 0t-6 -1q-4 2 -8 1t-7 2l-1 -1l-2 2q-6 6 -5 13q2 11 3.5 22.5t7.5 20.5q3 -2 3 1t2 1h-1v1h1v-1q5 1 7.5 5t4.5 9q0 4 -3 6.5t-5.5 5t-3.5 5.5t1 8q2 4 4 7t5 5q8 3 16 2.5 t17 3.5q24 8 46 26.5t27 44.5q2 12 -3 24.5t-16 19.5q-21 16 -48 13q-9 0 -18 7q-3 4 -3 9q0 6 -1 11q2 16 4 30.5t6 30.5q4 3 6 9q8 3 18 4.5t16 8.5q0 2 1 4.5t0 4.5q-3 3 -7.5 3.5t-8.5 0.5h-8q-3 0 -6 2h1q-2 5 -3.5 8.5t0.5 9.5q8 14 22 19.5t29 10.5l16 4t16 2 q16 2 31 0t29 -6q26 -8 49 -24t38 -39z" />
<glyph unicode="4" horiz-adv-x="586" d="M279 699l-1 1l1 -2q-2 -1 -5 -1t-5 -3q-52 -63 -101 -130.5t-97 -135.5q-4 -8 -10 -14.5t-10.5 -13t-7 -14t1.5 -16.5q1 -8 -2.5 -10t-8 -3t-9.5 -2t-6 -6q-4 -6 -3 -12t1 -13l0.5 -1t-1.5 -1h1l3 -19h-1q1 -3 1.5 -7t1.5 -8q1 -2 2 -3t1 -3l-1 1l1 -1q3 -3 3 0l2 -3 q1 0 1 -2h-1v1q1 0 2 -1t2 1q5 -3 11.5 -2.5t10.5 -5.5q1 -6 -2 -9t-7.5 -5l-9 -4t-5.5 -8h-1v1q-3 -12 4 -23q5 -4 9.5 -5t10.5 -2q42 1 86.5 2t85.5 -1q10 -1 19 0t17 -2q10 -3 12 -15q-5 -35 -10.5 -70t-9.5 -70q0 -13 -4 -26t4 -24v1q2 -2 2 -3q10 -8 23.5 -6.5 t24.5 0.5q7 3 8 11t7 13q3 2 6.5 1t5.5 -1q4 -3 5 -7l2 -8q2 -4 6 -6l8 -4q5 2 10.5 0.5t10.5 2.5q8 13 21 16q2 0 4 1.5t4 0.5l-1 2q2 1 2.5 0.5t1.5 -0.5l-1 3q2 1 3 4t2 5q5 38 13 78t16 79q2 11 4 20.5t4 20.5q5 24 11 50.5t12 52.5q2 19 10 36t12 35q0 2 1.5 5t0.5 6 q17 62 34 123t38 121v2l1 -1q-1 7 2 15q0 9 -7 14l2 -3q-4 3 -8 5q-14 2 -29.5 3t-28.5 -3q-3 -5 -8 -9.5t-6 -11.5q-2 -3 -2.5 -6.5t-3.5 -5.5q-4 -3 -9 -1q-4 7 -2 15t-6 13q-2 2 -4 2.5t-1 3.5q-16 -1 -35 -0.5t-34 0.5q-4 -1 -6.5 -2.5t-4.5 -2.5v-1q-2 -5 -6.5 -9 t-10.5 -2q-8 4 -14 6.5t-14 4.5q-2 3 -5 3.5t-6 0.5q-9 5 -19.5 6t-21.5 1zM370 648q1 -7 -5 -13.5t-11 -9.5q-2 -5 -6 -5q-7 -2 -7 5q0 5 2 7h2q1 2 -1 1t0 1h1v2q1 0 2 2v1q2 5 6 7.5t9 7.5q6 0 8 -6zM324 463q-2 -3 -1.5 -7t-1.5 -7q-3 -20 -7 -39.5t-9 -38.5 q-3 -6 -8 -8t-11 -2q-5 0 -11 1t-10 0q-10 1 -17.5 0t-15.5 5q-1 1 -1 5h1q-2 5 2.5 9t7.5 8h-1q2 5 5.5 8.5t6.5 7.5q14 16 27 31.5t26 29.5q4 4 10 3.5t8 -6.5zM240 389l-1 -1z" />
<glyph unicode="5" horiz-adv-x="492" d="M334 700q35 -1 66 -0.5t66 -1.5q7 -3 11 -11q2 -8 -0.5 -14.5t-3.5 -13.5q-2 -3 -1.5 -6.5t-2.5 -5.5q1 -9 -6 -18q-10 -5 -11 -14.5t-4 -18.5q-5 -7 -12 -9.5t-15 -3.5q-2 -1 -7 -6q0 -5 3 -8t7 -5h1q5 -2 10.5 -4t5.5 -10q2 0 1 -2.5t1 -4.5l-11 -21q-8 -7 -18 -4 t-19 1h-51q-25 0 -51 -1q-4 2 -6 0q-5 -2 -10 -7t-5 -12q-6 -17 -10.5 -35t-9.5 -35q-2 -5 0.5 -8t4.5 -7q15 -9 32 -15t30 -20q15 -11 25 -26l20 -30q23 -42 20.5 -92.5t-25.5 -91.5q-17 -30 -42 -55t-56 -42q-4 -4 -9 -5.5t-10 -5.5q-3 0 -5 -1.5t-5 -3.5v1q-2 -4 -8 -4 q-5 0 -8 -3q-33 -13 -70 -18t-72 4q-15 4 -29 10t-26 19q-1 3 -2 5.5t-1 5.5l4 8t7 6q10 0 18 -4.5t18 -2.5q6 6 3 11q-8 9 -18.5 12.5t-18.5 11.5q-5 6 -5 12q0 7 1.5 13.5t4 13.5t2.5 14q3 8 5 17t13 10q11 -1 19.5 -6t17.5 -6q28 -10 57 -5q22 3 42 15.5t27 35.5 q2 3 2.5 7t1.5 7q2 8 0.5 14t-1.5 13q-4 6 -7 12.5t-8 11.5h-1l-2 3l-1 -2q1 1 -1 1q-1 0 1 2q-2 -1 -2.5 1.5t-2.5 2.5q-4 2 -8.5 4t-8.5 1q-5 5 -12 2q-5 0 -11.5 -1t-12.5 -4q-6 -2 -11.5 0.5t-9.5 7.5q-10 15 -17 32t-17 34q1 4 1 8t2 6q0 2 1.5 2.5t3.5 2.5q7 3 16 5.5 t11 10.5q-1 5 -10 9q-8 2 -17 1.5t-13 9.5q0 14 3 25.5t5 25.5l6 28q-7 24 0 46t10 45q2 3 2 6q0 4 2 7q1 3 1 7t1 7q2 2 1 4.5t1 4.5q4 16 7 32t7 30q2 4 5.5 5.5t5.5 4.5q11 2 19.5 1.5t18.5 0.5q11 5 21.5 8t21.5 4q10 -1 18 0t17 0q11 0 21 0.5t21 1.5q2 -2 6 0 q8 0 17 -0.5t17 0.5z" />
<glyph unicode="6" horiz-adv-x="447" d="M305 686q4 -9 -1.5 -14t-2.5 -13q5 -2 9.5 -0.5t8.5 5t8 7.5t8 6q9 4 17 -1.5t16 -7.5v1h1v-1q2 -2 6 -4t9 -3q2 -3 5 -4t5 -4q2 -7 7.5 -10.5t12.5 -5.5q2 -2 5 -3t5 -3q4 -2 5 -5.5t4 -5.5q-2 -1 -2 -3t-2 -3l-1 -5q-17 -14 -32 -29t-32 -31l-3.5 -3.5t-3.5 -4.5 q-18 -18 -33.5 -35t-31.5 -37v-1v1q-12 -13 -21.5 -26.5t-20.5 -27.5q0 -1 -0.5 -0.5t-0.5 -0.5q-2 -4 -3.5 -6t-3.5 -5q1 -2 -2 -5l-1 1v-2v1q-1 -1 -1 -2h1l-3 -3q-18 -27 -33 -57.5t-24 -64.5l-1 -1q-3 -15 -4.5 -33.5t2.5 -33.5q0 -22 12 -35v-2h1h-1q6 -8 14.5 -14.5 t17.5 -6.5q2 2 3 0t3 0q2 -2 6 -2q2 2 2.5 1t2.5 -1v3q0 -2 4 -2q17 4 28 15t18 27q5 16 3 34t-13 32q-9 12 -23 14h1q-2 3 -4 2.5t-7 1.5q-2 2 -3 0.5t-3 0.5q-9 0 -15 8l-2 16q2 8 4.5 13.5t10.5 7.5q9 2 17.5 0t15.5 5q2 3 -0.5 5.5l-4.5 4.5q-4 0 -7.5 1.5t-7.5 1.5 t-8 2q-3 1 -4 2t-3 4q-5 7 -2 14t3 14q3 5 4.5 11.5t4.5 10.5q-1 1 -1 6v-1q10 3 21 5q14 1 28 0.5t28 -5.5q39 -11 68.5 -42.5t38.5 -70.5q7 -29 5 -57t-11 -55t-24 -51t-33 -44q-29 -30 -65.5 -50.5t-79.5 -25.5q-14 -1 -27 -1t-26 4q-1 1 -4 1q-2 0 -3 1 q-28 6 -52.5 23.5t-39.5 40.5l-2 2q-12 18 -23 39.5t-16 44.5q-14 50 -9 103.5t22 102.5q14 43 36.5 80t45.5 74q11 17 22.5 32t24.5 32q2 5 6.5 9t7.5 9q4 4 8 12h2q15 19 34 39.5t38 40.5q2 -1 1.5 1t1.5 2q5 3 9 5.5t9 0.5t11.5 -4t8.5 -9zM224 145l1 1zM221 144v1h1z " />
<glyph unicode="7" horiz-adv-x="455" d="M301 697q-52 2 -108 1.5t-110 1.5q-9 -3 -18 -1t-17 -5q-2 -4 -4 -7t-2 -7q-1 -2 -1.5 -1.5t0.5 -1.5q-4 -5 -2 -15q2 -2 1.5 -3.5t1.5 -3.5q8 -2 16.5 -3t15.5 -6q5 -3 2 -6t-3 -5q-8 -5 -17.5 -4.5t-19.5 -2.5v1q-4 -2 -5 -3l1 -1l-3 -2q-2 -4 -2.5 -7.5t-2.5 -7.5 q-2 -12 -5 -23.5t-3 -25.5q1 -4 7 -8q2 -4 2 -7t-1 -7q-2 -5 0.5 -9.5t5.5 -7.5v1q10 -4 21 -2.5t22 0.5q15 1 29 0.5t28 -1.5q9 -1 19.5 0t18.5 -3q9 -3 7 -13l-13 -38q-2 -3 -2 -5q0 -1 -2 -5q-40 -109 -72.5 -214t-58.5 -218q2 -3 2.5 -7t2.5 -6q3 -2 7 -3.5t6 0.5l1 -1 l1 1q2 -4 3 -0.5t3 -1.5q2 2 4.5 1.5t4.5 0.5q5 3 8.5 7t7.5 8q-3 0 -1 1.5t1 2.5q1 3 5 9q4 3 9 3q8 -2 6 -8t-1 -11q-1 -2 -1.5 -5.5t1.5 -4.5h1q1 -2 2 -2t3 -1l-2 -2q4 1 7.5 -1t7.5 -2q11 2 22 0.5t23 1.5q17 7 22 20h-1q30 120 73.5 232t115.5 213q11 8 8 24 q-2 6 -7.5 8t-8.5 8q2 6 5 8q10 2 19 0t20 0q5 2 6.5 5t4.5 7l15 54q2 5 2 12q-1 10 -9.5 11.5t-14.5 6.5l2 1q-1 0 -1.5 0.5l-0.5 0.5q-3 5 3 11q2 1 3 1t3 2v-1q2 2 5.5 3.5t4.5 5.5q3 10 5.5 20.5t5.5 20.5q-1 3 -1.5 7t-2.5 6q-2 0 -4.5 2t-4.5 1q-14 0 -27.5 1.5 t-28.5 1.5h-4q-12 1 -23 1t-22 1q-2 -1 -3 0t-4 -1q-4 1 -7.5 0.5t-7.5 1.5v-1zM329 511q2 -10 -5 -18.5t-13 -15.5q-4 -4 -7 -1q0 2 -1.5 4.5t1.5 3.5v1h-1q2 9 6 17t12 14q2 1 5 -1t3 -4z" />
<glyph unicode="8" horiz-adv-x="512" d="M465 629q-23 38 -63 55.5t-84 15.5q-20 -2 -39 -4.5t-38 -8.5q-1 -2 -3 -2.5t-4 -1.5q-1 -2 -3.5 -3t-1.5 -3h-2q0 -2 2 -2q-3 -4 -2 -9.5t3 -10.5q1 -6 4 -12.5t0 -11.5q-2 -2 -4 -2h-4q-2 1 -4 3t-3 2q0 2 1 2q-8 7 -13 6t-13 0h1l-1 -1l-1 1q0 -2 -1 -1t-2 -1 q-32 -23 -54 -49t-36 -61q-15 -39 -14 -79t21 -76q5 -9 11.5 -17t11.5 -16v2q1 -1 1 -6q-3 -2 -3 -6q0 -3 -5 -5q-33 -20 -58.5 -50t-38.5 -66q-14 -43 -4.5 -89.5t44.5 -77.5q2 -2 3.5 -4t3.5 -3q2 -4 5.5 -6t6.5 -5l1 1q0 -2 3 -2q12 -9 27 -14t29 -8q21 -4 44.5 -3 t44.5 7v-1l2 2q2 -2 3 0.5t3 0.5q1 1 3 1v-1q2 2 3 2q11 4 21.5 9t21.5 11q28 17 53 42t40 55h1q2 7 5 13t4 13q10 38 4.5 79t-32.5 71q-2 5 1.5 8.5t4.5 7.5v-1q2 5 5 7t7 5q3 1 5 3.5t5 3.5q22 19 41 41.5t33 48.5q3 7 6.5 13.5t5.5 13.5q16 42 14.5 89t-29.5 85zM296 610 q2 -1 6 -1q4 -4 2 -7l-3 -2q-11 -2 -19.5 -5t-18.5 -1l-1 1h-1l-2 2l0.5 -0.5t0.5 -1.5v7q0 4 5 6q8 3 16 3t15 -1zM279 529h1q2 -1 2.5 -3t3.5 -1q-2 0 0 -1.5t3 -0.5q2 -2 2 -3l1 1l0.5 -1t1.5 0q2 2 4.5 -0.5t4.5 -2.5q4 -2 6.5 -6.5t4.5 -8.5q1 -5 1.5 -11.5t-0.5 -13.5 q-2 -15 -10 -29t-21 -22q-8 -3 -14 1q-16 19 -19 44t8 45q1 1 1 2t2 2v-1q2 1 1.5 2t1.5 3t4.5 4t4.5 3l2 -1q1 0 3 -1zM247 230q4 -9 6 -16.5t0 -16.5q0 -11 -5 -20q-3 -11 -12 -22q-3 0 -4 -2.5t-4 -2.5q-5 -5 -13 -9t-17 -1q-6 1 -10.5 5.5t-7.5 9.5q2 2 0.5 1.5 t-1.5 1.5q-2 1 0 3q-3 3 -2.5 8.5t-0.5 10.5q0 6 2.5 11t3.5 10q1 -1 1.5 0.5t0.5 3.5l-1 -1l1 1h1q5 11 15 20t19 15q19 6 28 -10z" />
<glyph unicode="9" horiz-adv-x="510" d="M432 634q19 -21 31.5 -46.5t20 -53.5t9.5 -56t0 -54q0 -4 -1 -5q0 -7 -1 -14l-2 -14h-1q-2 -20 -8 -38.5t-14 -36.5q-2 -1 -1.5 -2t-0.5 -2q-9 -23 -20.5 -44.5t-24.5 -41.5q-22 -39 -47.5 -72t-54.5 -65q-20 -23 -43.5 -43t-46.5 -38q-3 0 -7 -1.5t-7 -2.5 q-15 -5 -29.5 -4t-29.5 0q-2 2 -4.5 4t-3.5 4q-2 8 4.5 12t3.5 13q-1 3 -5 3q-3 0 -5 -1q-13 -5 -22 -15t-22 -12q-7 -2 -14.5 -1t-15.5 1q-3 2 -7 4t-3 7q-1 5 3 7.5t7 4.5q53 45 98 98t79 116q10 20 20 38t17 38q3 5 5 11.5t4 12.5h1q0 5 3 11t5 11q1 2 0.5 4.5t1.5 3.5 q-2 1 -1 2.5t2 2.5q5 18 8 36.5t1 39.5q-2 4 -1.5 10t-1.5 11q-5 16 -14.5 27.5t-26.5 14.5q-3 0 -4 1.5t-3 0.5q-2 2 -3 0.5t-3 0.5q-14 2 -28 -4t-24 -17q-27 -30 -21 -70q3 -4 2.5 -8t3.5 -9q2 -5 8 -11.5t11 -8.5q9 -10 26 -10h2h-1l1 -1q1 0 2.5 0.5t2.5 0.5 q1 -1 1.5 -0.5l0.5 0.5q1 1 2 0t3 0h1q1 0 0.5 1t0.5 0v-1q3 0 5.5 -1t4.5 -2q4 -3 4.5 -6.5t0.5 -7.5q-3 -4 -3.5 -8.5t-4.5 -6.5q-4 -5 -9.5 -4t-7.5 -4q-4 -4 -2 -11q5 -5 4 -11t1 -12q-4 -10 -7.5 -21t-8.5 -20l1 -1q-2 -2 -4 -5t-4 -5q-5 -5 -11.5 -7.5t-11.5 -0.5 l-2 -1q0 1 -2 1q-31 -2 -62.5 9.5t-53.5 31.5q-5 4 -10 10.5t-10 10.5q-2 5 -4.5 8t-4.5 8q-8 13 -14 28.5t-9 31.5q-8 31 -6 61t12 62q11 36 32.5 65.5t46.5 55.5q4 2 7.5 5.5t7.5 6.5q45 35 99 50q2 1 4 1t4 1q33 6 70.5 3t69.5 -18q32 -18 59 -47zM304 378l1 -1z" />
<glyph unicode="?" horiz-adv-x="381" d="M268 680q2 -1 3.5 -3t3.5 0q11 -9 21 -16t20 -18q17 -19 28 -42.5t16 -49.5t4 -52.5t-7 -50.5q-2 -12 -6.5 -23t-8.5 -22q-4 -8 -6 -11v-3q-9 -19 -21.5 -36t-27 -33t-28.5 -31.5t-26 -31.5q-6 -9 -11 -17.5t-10 -17.5t-15.5 -12t-15.5 -13l-1 -2h1l1 1l-3 -2 q-2 0 -3 -1.5t-3 -1.5q-6 -1 -11 -5v1q-8 2 -14.5 1.5t-14.5 1.5q-10 -2 -20.5 1.5t-19.5 9.5q-3 1 -5.5 -0.5t-4.5 -3.5q-7 -10 -19 -9q-5 0 -10.5 2t-8.5 8q-4 4 -3 8.5t1 8.5q19 54 48 103.5t67 92.5l-1 2q5 2 6.5 5.5t4.5 7.5q8 17 7.5 35.5t-10.5 33.5q-11 19 -30 28.5 t-41 8.5q-16 -1 -31 -6q-8 -1 -12.5 2.5t-9.5 8.5q-1 10 -5.5 19t1.5 18q3 6 8.5 8.5t11 4.5t9 5.5t1.5 11.5q-5 4 -10.5 3.5t-10.5 -1t-10 0.5t-8 8l-7 31q0 3 2 4t1 5q7 5 14 8.5t10 11.5l7 5q45 16 94.5 19.5t95.5 -9.5zM123 153l1 -6q0 -2 1 -5t4 -5q7 -3 12 4q2 2 3 6 t5 3q4 4 9.5 4.5t11.5 2.5q3 1 6 1q4 0 8 -3q5 -1 9 -9h1q-2 -10 -4.5 -21t-4.5 -21q-4 -16 -6.5 -33t-3.5 -34q-2 -4 -0.5 -7t-0.5 -7q-3 -12 -13 -18q-5 -3 -10 -3t-10 -2q-23 1 -43.5 0.5t-43.5 0.5q-14 3 -22 16q-5 4 -11 8t-5 12q0 11 2.5 20.5t3.5 20.5q2 2 1 5.5 t1 5.5q4 16 6.5 30t8.5 28q2 6 6.5 9t9.5 6q11 1 24 1q14 0 26 1v1q5 -2 10.5 -4.5t7.5 -7.5z" />
<glyph unicode="A" horiz-adv-x="562" d="M537 679q-1 8 -7 13.5t-12 7.5q-6 -2 -12 -0.5t-12 -0.5l-7 -6q-6 -5 -11 -0.5t-10 5.5q-2 -1 -2.5 0.5t-1.5 0.5q-9 2 -15 0.5t-15 0.5q-8 -4 -13 -9.5t-13 -3.5q-4 2 -6 4.5t-6 1.5v1h-11q-2 -2 -4 -3t-4 -3q-23 -35 -46 -71.5t-44 -73.5q-33 -55 -65 -111t-62 -113 q-26 -47 -47.5 -94t-47.5 -95v1v-1q-8 -21 -19 -41.5t-19 -40.5h-1q-2 -6 -4.5 -12t-3.5 -13q-1 -5 2 -8.5t6 -6.5q9 -6 19 -2.5t17 8.5q8 3 12.5 -2.5t11.5 -6.5q4 0 9 -0.5t8 3.5q4 3 8.5 1t8.5 -3q5 0 9.5 -1t8.5 1q2 -1 1 -1t-1 -1h3l-2 2q2 2 2 1t2 -2q3 4 7 6t7 7 q10 17 19 34.5t18 34.5q2 6 6.5 7.5t8.5 5.5q20 2 43 1.5t43 1.5q4 2 9 3t9 5q13 5 26.5 4t27.5 0q4 -3 10 -3.5t7 -7.5q1 -18 1 -39t2 -44q2 -3 4 -6.5t3 -7.5q4 -5 9 -5t10 -2q2 2 3.5 1t3.5 1q1 -1 0 -1.5t0 -0.5l1 2q1 0 2.5 -0.5t2.5 0.5q11 8 24 5.5t25 -2.5h4v0 q1 0 1 -1q7 0 11.5 5t7.5 10q4 4 9 0q0 -7 7 -12q5 -4 13 -2q4 1 5.5 4l2.5 5q-1 4 2 6.5t1 6.5q-3 2 -0.5 3.5t0.5 3.5q1 7 1 13q0 7 1 14q3 63 5 120.5t3 120.5q1 2 0 4.5t0 4.5q0 15 0.5 28.5t-0.5 27.5l1 3q-2 23 -1 45.5t-1 46.5q0 54 -3 108t-6 109zM368 363 q-1 -4 0.5 -6t-0.5 -5q2 -2 0 -3q1 -5 2 -9.5t0 -9.5h1l-1 -2q0 -4 1 -5q2 -6 1 -9.5t1 -10.5l-1 -4q1 1 1 -1v-1l-1 -1l1 -1q0 -1 0.5 -4.5t0.5 -6.5q-1 -5 0.5 -12.5t2 -15t-2.5 -13.5t-12 -8q-15 0 -34.5 0.5t-34.5 0.5q-2 1 -4.5 1.5t-3.5 2.5q1 10 6 17.5t9 14.5 q14 23 28 47t28 47q4 4 7 6q4 1 4.5 -3t0.5 -6zM379 197q0 -7 -5 -8q-7 -1 -15 -1t-13 5l-1 2h-1q-2 2 -1 2.5t1 1.5q1 0 2 1.5t2 0.5q6 1 11.5 3t11.5 0q2 0 5 -2t3 -5z" />
<glyph unicode="B" horiz-adv-x="540" d="M414 682q-45 12 -89 15.5t-94 2.5q-15 2 -31 -4t-31 -4q-1 1 -1.5 -0.5t-0.5 0.5q-11 -2 -22 0t-21 -5q-8 -3 -8 -11v-13q-6 -12 -12.5 -24.5t-6.5 -26.5h-1h2q-2 -3 -1 -7l2 -8q-2 -4 -2 -7l-3 -3v-1q-3 -4 -5 -7.5t-4 -8.5q-1 -10 -5 -20t4 -19q3 -8 10 -8t12 -3 q7 0 10 -2q2 1 4.5 -0.5t4.5 -1.5q4 -8 0.5 -16t-5.5 -16q-1 -5 -4 -6.5t-7 -1.5q-3 0 -6.5 -0.5t-6.5 -2.5q-13 -6 -14.5 -19t-6.5 -24q-1 -3 -0.5 -5.5t-1.5 -4.5q-4 -17 -7 -33.5t-5 -33.5q-7 -32 -11.5 -64.5t-10.5 -63.5q-6 -46 -12 -89.5t-12 -90.5q0 -8 -1 -17t4 -15 t13 -6t13 2q0 2 1 1l1 -1q0 3 2 2q2 4 5.5 7.5t5.5 8.5q2 -1 2.5 0.5t2.5 -0.5h-1q2 0 2.5 -0.5t1.5 -0.5v1q6 -2 7.5 -7t2.5 -10h1q5 -3 4 -5q4 -2 5 -4v1q4 -2 9 -2t9 2v-1l3 2v-1l1 1q5 8 14 5t17 -2q1 1 2 0t1 1l1 -2q5 2 9.5 5.5t7.5 7.5v-1q2 4 2.5 7.5t2.5 7.5l-1 -1 l1 8q-1 2 1 4t0 3q2 3 1.5 5.5t0.5 5.5q2 5 1 8.5t4 6.5q5 5 9 -2q5 -12 5 -23q3 -8 4 -16t6 -13q9 -8 20.5 -9.5t21.5 1.5q2 -2 4.5 0t4.5 -1q7 2 14 2q8 0 15 3q29 5 58 17t55.5 30t47.5 43t33 55q15 33 14 72t-18 71q-2 2 -3 4t-3 4q-1 3 -4.5 6.5t-5.5 7.5q2 1 0.5 1.5 t-0.5 0.5h-1l-16 18l-1 2q-5 2 -8.5 5.5t-7.5 6.5l3 3l1 -1q21 15 41.5 32.5t34.5 40.5q22 31 26.5 72t-6.5 76q-9 20 -22 39.5t-30 33.5q-3 0 -3 3v-1q-2 2 -4 3t-2 3v-1q-7 3 -12.5 7t-12.5 6q-5 3 -9 4.5t-9 3.5zM319 520q11 -5 20.5 -14t10.5 -23v-8h-1q0 -5 -1.5 -12 t-5.5 -10q1 -5 -2.5 -9.5t-5.5 -8.5q-7 -7 -14.5 -14t-15.5 -12q-2 -1 -3 -1t-3 -2v1q-2 -2 -4.5 -2.5t-5.5 -2.5q-1 0 -2 -1t-2 -1q-7 -3 -13 -2t-14 -1q-1 2 -2.5 0.5t-3.5 0.5q2 3 -0.5 2.5t-2.5 1.5q-2 11 2 21t6 21q3 9 5 18t5 17q2 1 1 2.5t0 2.5q1 4 2.5 7t2.5 8v-1 q1 6 5 13q6 7 16 9t20 0h6zM235 515q1 -3 -1.5 -6.5t-1.5 -6.5q-1 -2 -2 -3.5t0 -4.5q-2 -1 -3 -3.5t-2.5 -4.5t-3 -3t-5.5 1q-1 1 -1.5 3t1.5 4t1 4t0 4q2 6 3 12t6 9q7 0 9 -5zM296 276q11 -17 8 -38.5t-13 -38.5q-8 -9 -13.5 -17.5t-15.5 -14.5q-2 -2 -5 -3.5t-4 -3.5 q-4 -2 -6.5 -3.5t-5.5 -0.5q1 -2 -1 -2h-2q-2 1 -3 -1.5t-1 0.5q-1 1 -2 0t0 -1q-5 -1 -7.5 -2t-7.5 -1l-1 2q-2 -2 -3 -1.5t-2 0.5l-5 1q-2 0 -2.5 0.5t-2.5 0.5q-7 0 -7 7q-2 -1 -1.5 0.5t-0.5 2.5q5 27 10.5 53t10.5 54q2 4 3 9t4 8q0 2 2.5 4.5t4.5 2.5v1l1 -1 q3 3 9 2.5t9 1.5q14 0 28.5 -4t21.5 -17z" />
<glyph unicode="C" horiz-adv-x="488" d="M438 694q9 -1 19 -1.5t15 -11.5l1 -4q-2 -10 -3.5 -19t-3.5 -18q-2 -5 -5.5 -10t-5.5 -11q0 -4 -3 -7t-1 -8q-1 -5 -2 -9l-2 -8q-2 -2 -2 -6q2 -4 2 -10t2 -11q-3 -8 -3 -17q0 -8 -7 -13q-7 -8 -16.5 -7t-17.5 -2q-14 -1 -27 -6.5t-25 -12.5q-28 -17 -51 -38.5t-42 -46.5 q-5 -7 -12.5 -11t-12.5 -12l-2 -1q-14 -17 -24.5 -35.5t-15.5 -38.5q-3 -4 -3.5 -10t-3.5 -11q-3 -17 -3.5 -36t5.5 -36q0 -6 2.5 -10t3.5 -8q11 -18 28.5 -34t40.5 -21l20 -4t20 0q12 -1 22.5 1.5t22.5 -1.5q4 -4 6 -14q0 -3 -1.5 -4.5t-1.5 -5.5l2 2q-2 -5 -2.5 -9.5 t2.5 -8.5q2 -4 1 -6h1q1 0 1 1q-1 -2 -0.5 -3t-0.5 -3q1 -1 1 -3q-1 1 -2 1q-1 -2 0 -2.5t0 -2.5q0 1 -1 2q-3 -5 -3 -12q0 -6 -7 -9q-6 -6 -13.5 -5.5t-9.5 -8.5v2l-2 -2q2 -2 1 -3.5t2 -3.5q2 -1 4 -3.5t5 -2.5q-2 -2 1 -7q3 -4 1.5 -7.5t-0.5 -8.5q-4 -9 -12 -14t-17 -5 q-7 -2 -14 -1.5t-15 -1.5q-59 -2 -113.5 18t-92.5 67q-6 14 -15.5 24.5t-14.5 24.5q-3 11 -7 22t-5 22q-10 39 -10 81q0 8 1 12q0 17 2.5 30.5t5.5 29.5t7.5 30.5t9.5 28.5q15 48 43 89q-1 1 0 2.5t2 2.5l27 42q14 19 31.5 37.5t31.5 33.5q8 6 11 10q8 8 18 14.5t19 14.5h-1 q3 1 8 4t8 6h1q2 2 4.5 3t4.5 3h1q32 19 69.5 31.5t75.5 15.5q2 2 4 0q9 2 19 -0.5t19 -4.5zM445 579l1 -2z" />
<glyph unicode="D" horiz-adv-x="584" d="M275 699q-19 0 -36.5 -0.5t-37.5 1.5q-8 -1 -17.5 -0.5t-17.5 -0.5q-17 -1 -30.5 1t-29.5 -6q-10 -6 -14 -16t-6 -21q-2 -2 -1.5 -4.5t-1.5 -3.5q0 -2 0.5 -3t-0.5 -3q2 -7 1 -13.5t-2.5 -12.5t-3 -12.5t0.5 -13.5q0 -2 1.5 -2.5t-0.5 -2.5q2 -2 3 -1q3 -2 7.5 -3t4.5 -5 q2 -7 -2 -11q-6 -3 -13 -4.5t-11 -8.5q-3 -6 -1 -16q7 -11 20 -9t22 1q5 -2 7 0l1 -1l3 1q3 0 5 -2l1 2q5 -2 7 0q2 -1 4.5 -0.5t4.5 -1.5t3.5 -5.5t-0.5 -5.5q-2 -7 -3.5 -14t-10.5 -9q-5 3 -4.5 7.5t-1.5 9.5l-1.5 1.5t0.5 1.5l-7 7q-2 1 -4 0.5t-4 1.5q-12 0 -17 -13 q-5 -17 -9.5 -35t-6.5 -36q-5 -14 -6.5 -29.5t-4.5 -29.5q-5 -23 -8.5 -46.5t-7.5 -46.5q-2 -11 -4 -22.5t-3 -21.5q-5 -22 -7.5 -47.5t-6.5 -50.5q0 -13 -2.5 -26.5t-3.5 -27.5q-1 -5 -1.5 -11t-1.5 -11q-1 -9 -2 -17.5t0 -16.5q-4 -11 1 -19q3 -3 7 -6t9 -3q8 -2 14 3 t14 2q5 -9 14.5 -9.5t17.5 -1.5q14 6 26.5 3.5t23.5 3.5v-2l2 1h-2l1 2l1 -1l1 2q2 -2 1.5 -1.5t1.5 1.5q-1 0 -1 2q3 2 4.5 5l2.5 5l2 2q3 7 4 16t3 17q-1 2 1 1.5t0 1.5q4 4 7 4q5 -1 7 -5.5t4 -9.5q-3 -3 1 -3q1 -8 3 -16t8 -14q4 -2 9 -2h11q6 2 12 1.5t12 -2t12 -2 t12 1.5l2 -1v1q57 15 109 50.5t87 86.5q5 6 9 12.5t9 12.5q2 6 5.5 10t6.5 10q20 32 36.5 67.5t26.5 74.5t11.5 81t-7.5 81q-1 2 -0.5 4.5t-1.5 4.5q1 8 -2.5 13.5t-3.5 12.5q-5 15 -12.5 29.5t-15.5 27.5q-15 24 -36 46t-47 34q-20 10 -41.5 15.5t-41.5 7.5q-3 1 -6.5 2 t-6.5 -1l-1 1l-2 -1v1q-2 0 -3.5 1t-3.5 -1l-1 2v-2h-1v1q-5 1 -8 0.5t-8 0.5v1h-27q-3 1 -7 0.5t-8 0.5zM302 527q12 -2 23 -6.5t20 -13.5q5 -3 9 -8v-3h1q2 1 3 -1t3 -4t3.5 -6t4.5 -7q2 -5 5.5 -13t4.5 -14h-1q-1 -2 0 -1.5t2 -0.5l-1 -1q1 -2 1 -4t1 -5q-1 -1 0.5 -3 t-0.5 -4q2 -1 1 -3t1 -4q1 -11 1 -24t-2 -23l-1 -9q-2 -21 -7 -41.5t-13 -41.5q-2 0 -1.5 -1.5t-0.5 -2.5q-25 -58 -73 -93q-20 -17 -44.5 -28t-50.5 -11q-5 0 -5 6q1 2 1 5t2 5l-1 1q9 45 19 87t21 86q3 19 8 36.5t10 35.5q2 2 1.5 5.5t0.5 5.5q2 10 0.5 18.5t0.5 17.5 q-2 3 -1 6t1 6l14 47q2 4 6 7.5t9 2.5q10 1 23 0z" />
<glyph unicode="E" horiz-adv-x="484" d="M448 699l1 1q7 -1 13 -4.5t8 -10.5q1 -3 0.5 -4.5t0.5 -4.5l-1 1l-1 -2q-1 -9 -2 -18.5t-2 -18.5l1 -1q0 -7 -3.5 -13t-6.5 -11q-10 -16 -30 -21q0 -3 -2 -3.5t-1 -3.5q0 -4 5 -7q4 -1 12 -7q1 0 2.5 -3t3.5 -5q2 -10 -0.5 -20t-5.5 -19q-2 -1 -3.5 -3t-4.5 -2 q-6 -1 -11.5 -1.5t-11.5 1.5q-37 1 -70.5 1.5t-67.5 2.5q-8 -2 -17 -1t-15 -7q-1 -4 -3 -5.5t-1 -5.5h1q-3 -3 -2.5 -7t-0.5 -8q-3 -2 -1.5 -3t2.5 -3t6 -2q4 3 6.5 8.5t5.5 10t7.5 7t11.5 0.5l2 -2v2q9 -4 12 -15q-1 -5 -2 -9.5t-3 -8.5q-1 -5 -3.5 -10t-2.5 -10 q-3 -8 -5.5 -17.5t-5.5 -18.5v-8q0 -11 6 -15h17t17 1q5 -2 11 -2q7 0 12 1q10 -1 21 -1h21q3 0 5.5 -1.5t4.5 -3.5q1 -2 2.5 -5.5t-0.5 -5.5q1 -1 -0.5 -3t-1.5 -4q1 -3 -1.5 -4t-2.5 -3q-7 -4 -7 -14q0 -3 3 -4v1v-2q2 2 2 -1q4 -12 1 -25q-2 -20 -14 -32 q-6 -4 -15.5 -3.5t-15.5 -3.5q-10 -2 -17.5 -9.5t-19.5 -5.5q-14 1 -28.5 0.5t-28.5 -0.5q-5 1 -10 -1.5t-9 -6.5q-6 -17 -9.5 -33.5t-8.5 -33.5q-2 -8 -4.5 -14.5t1.5 -14.5q3 -2 7.5 -3t8.5 -1q3 -1 4.5 0t4.5 1v-1q12 -2 26.5 -0.5t28.5 -0.5q4 1 8 0.5t9 0.5 q17 -1 33 -0.5t32 -1.5v-2h1v-1h1q3 -2 5 -5.5t4 -5.5q-3 -14 -6 -26.5t-6 -26.5q-3 -6 -7 -10t-3 -12q2 -5 4 -10.5t2 -11.5h-2q-4 -9 -4.5 -17t-8.5 -16q-3 -2 -4.5 -5.5t-6.5 -2.5q-5 -2 -9.5 -1.5t-10.5 -1.5q-17 1 -32 2t-32 0q-9 2 -18.5 1.5t-19.5 -0.5t-19 2t-16 10 q-6 2 -8 0q-5 -7 -14 -8t-17 -2l-1 1q-23 -2 -45 -1t-46 0q-14 2 -21 12h-1q1 2 -1 9q-1 9 1.5 19t1.5 18q5 17 6 38t5 39q3 18 5 35.5t5 35.5q3 16 6 32.5t5 32.5q2 5 2 11q0 7 2 12q6 34 13 70t15 69q2 10 10.5 13.5t13.5 11.5q5 9 6 19.5t4 19.5q1 4 2.5 8.5t-3.5 8.5 q-8 4 -17.5 2.5t-17.5 1.5q0 1 -1 1v1q-1 -3 -2 -1t-3 1q1 2 -2 2v-1q-2 1 -1 2t0 3h-1q-2 5 0 10t1 10l2 8t2 9h1q0 2 2 2q-2 1 -1 1t1 1q2 5 8.5 6t8.5 6q0 2 1 3.5t0 3.5q-5 3 -12 7.5t-6 10.5q0 15 3.5 30.5t6.5 30.5q7 7 16 10t18.5 3.5t19.5 0t19 1.5q11 1 21.5 8 t21.5 4q5 0 6.5 0.5t6.5 0.5v-1h1v1q0 -2 0.5 -1t1.5 0q2 1 4.5 0.5t5.5 0.5h27q13 0 28 1q38 0 80 0.5t84 -0.5z" />
<glyph unicode="F" horiz-adv-x="508" d="M353 699l-1 1q-34 -1 -71 -1q-36 0 -72 -2h-9q-18 -1 -38.5 -2t-40.5 -1l-12 -2t-11 -5q-6 -8 -9 -18t-1 -19q2 -2 -0.5 -3.5t1.5 -3.5v1l3 -6q2 -3 -2 -9q-2 -4 -9 -4q-2 -2 -3.5 -3t-3.5 -3q-4 -5 -4.5 -11t-2.5 -11q3 -10 1.5 -20t-3.5 -19t-2 -18t6 -18l2 1v-2 q9 0 18 0.5t17 0.5l1 1q8 -3 18.5 0t17.5 -5q1 -3 1.5 -7.5t-1.5 -7.5q0 -5 -1.5 -11.5t-3.5 -11.5q-1 -2 -3.5 -4t-4.5 0q-2 0 -2.5 2.5t-1.5 3.5q2 8 2 17t-8 14q-3 2 -8 2q-4 0 -8 -1q-6 -2 -8.5 -6.5t-5.5 -9.5q-10 -41 -17.5 -82.5t-15.5 -81.5q-5 -39 -13 -76t-12 -76 q-3 -14 -5 -30t-4 -33q-5 -11 -2.5 -22.5t3.5 -22.5l-4 -28l-4 -28q-2 -8 4 -14q4 0 5.5 -2t5.5 0q6 0 8 1q6 3 8 8.5t4 12.5q4 4 10 3q6 -2 6 -7t1 -10l1 -1q0 -1 1 -1.5t-1 -1.5q3 -3 6 -3q4 0 7 -2q14 0 29 -1t29 1q8 2 12.5 9t6.5 14q0 3 1 3q5 29 12 62t14 63 q3 12 5 24.5t7 23.5q3 15 7 32t9 30q5 7 12 5t15 0q2 1 3 0t2 0q20 -1 39 1t39 -1q10 2 18 5t10 14q-2 2 0 4.5t2 4.5q0 7 5 14q10 2 13.5 11t6.5 15l-1 1h1q0 6 2 13.5t3 13.5q0 1 2 1v5q0 4 -1 7q-1 7 -5.5 9.5t-9.5 3.5t-10.5 1.5t-9.5 3.5q-7 10 -23 10q-4 2 -7.5 0.5 t-8.5 -0.5q-2 1 -3 0t-2 1l-2 -1q0 1 -2.5 0.5t-3.5 0.5v-1q-2 0 -5 0.5t-5 -0.5q-7 1 -12.5 0.5t-13.5 0.5l-1 2q-7 1 -5.5 6.5t-0.5 9.5q5 19 10 35.5t11 35.5q2 2 2 4q0 3 2 2h-1v1q-1 5 2 9t3 9q3 5 11 7q23 2 46.5 1t49.5 0q5 -2 9.5 -0.5t10.5 -0.5q12 2 25 0.5 t22 9.5q4 7 4.5 16.5t-4.5 17.5q-2 4 -0.5 7t3.5 5q1 1 2 0.5t2 1.5q4 -1 7.5 3t5.5 7q5 19 7.5 36.5t7.5 34.5q-1 5 -1.5 10.5t-4.5 7.5q-5 2 -10 4.5t-10 0.5q-10 2 -18 1.5t-17 -0.5q-12 2 -24 5.5t-25 5.5q-8 -1 -15.5 0t-14.5 -1zM237 519q2 -7 -1 -12.5t-5 -11.5 q-2 -5 -3 -5q-8 -2 -9 5v8h1q0 4 1 9.5t4 7.5q0 1 5 3t7 -4zM74 4l-1 2l1 -1v-1z" />
<glyph unicode="G" horiz-adv-x="538" d="M430 696q8 -2 15 -2q8 0 16 -5q4 -4 5.5 -8t-0.5 -10q-4 -6 -8.5 -7t-9.5 -1.5t-10 -2t-8 -7.5q2 -3 2.5 -6t4.5 -5q6 -2 11.5 -5.5t6.5 -10.5q-1 -11 -2.5 -21.5t-5.5 -19.5q-5 -11 -6.5 -24.5t-15.5 -19.5q-9 -2 -11.5 -9t-11.5 -9q-18 -3 -35.5 -6t-34.5 -10 q-20 -8 -38.5 -21t-32.5 -29q-33 -34 -54.5 -77.5t-33.5 -88.5q-2 -8 -4 -17.5t-3 -17.5q-1 -16 -0.5 -31.5t6.5 -32.5q6 -19 21 -34t36 -16q24 1 41.5 12.5t30 29.5t21.5 38.5t16 39.5q0 8 -7 11q-11 2 -22 1.5t-24 0.5q-6 2 -11 6t-6 11q0 10 3.5 18.5t4.5 17.5 q5 8 14 12.5t17 9.5q3 5 2 7h1l-1 1q-1 5 -5.5 7t-7.5 7q-4 6 0 16q7 7 15.5 10t17.5 3q10 0 20 -0.5t19 1.5h139q4 -2 8 -3.5t6 -5.5t2 -7v-7q-6 -16 -8 -33t-12 -32q-2 -8 -1.5 -20.5t-10.5 -18.5q-5 -5 -10.5 -4.5l-11 1t-10.5 -0.5t-9 -8q-3 -6 -6 -11t-4 -12q0 -6 5 -6 q10 1 15 14q0 2 2 4.5t3 4.5q1 0 2.5 0.5t-0.5 1.5q6 3 11 2q4 -1 5 -4t3 -6q-2 -11 -6 -21.5t-8 -20.5q-19 -45 -46 -83t-65 -69q-14 -11 -30.5 -21t-33.5 -17q-8 -3 -15.5 -5.5t-15.5 -5.5q-10 -1 -19.5 -3t-17.5 -4q-1 2 -2 0.5t-2 0.5v-2l-1 1q-53 -4 -98 23t-71 70 q-17 32 -27.5 67t-9.5 74q2 7 1.5 13.5t0.5 14.5q0 8 2.5 17t1.5 17q1 3 0 7t-1 7l-7 18q2 28 11.5 52.5t18.5 50.5q11 24 23.5 47.5t27.5 45.5q6 12 14 21.5t16 19.5q2 2 6 8q25 29 54.5 52.5t64.5 39.5q2 0 2.5 1.5t2.5 1.5l21 9l1 3q0 -1 0.5 -1.5l0.5 -0.5q23 9 49 14 t53 7q13 -2 24.5 -1.5t23.5 -2.5z" />
<glyph unicode="H" horiz-adv-x="635" d="M303 693q0 -11 -3.5 -20.5t-6.5 -20.5q-5 -14 -7.5 -29t2.5 -30q2 -11 -1.5 -21t-5.5 -21q-5 -16 -10 -34t-10 -34q-2 -9 -4.5 -17.5t-4.5 -17.5l-11 -44q0 -5 3 -9l8 -5q25 1 51 0t49 1q5 1 9 5t7 8q14 67 29.5 135t34.5 133q4 10 10 13l-2 1q2 -2 2.5 -0.5t2.5 2.5 q1 -1 1 0t2 0q14 3 27.5 2t26.5 0q11 7 25 7q3 -1 6.5 -0.5t6.5 0.5q6 -6 8 -12q0 -5 -2.5 -9t-0.5 -7q-2 -7 0 -10q1 -2 3.5 -3.5t4.5 0.5q3 2 4 4.5t3 5.5q7 7 9 16.5t12 11.5l1 1q8 -1 16.5 0.5t15.5 -4.5q2 -1 2 -4q0 -2 3 -3q2 -2 -0.5 -2.5t-0.5 -2.5q0 -4 -1.5 -7.5 t-1.5 -7.5l-1 -2q-17 -54 -33 -110.5t-30 -111.5q-3 -9 -9 -16.5t-5 -17.5q-7 -20 -12 -43.5t-10 -44.5l-24 -116l1 -1q-10 -42 -16.5 -83t-14.5 -83q2 -2 0 -4t-1 -4q0 -2 -1.5 -4.5t0.5 -4.5q-2 -3 -2 -7t-3 -6q-2 -4 -6 -4t-8 -1l-1 1t-2 0h1q-2 2 -2.5 3.5t-2.5 4.5 q-4 6 -9 2q-4 -5 -11.5 -7t-12.5 -1q-4 0 -8 -1t-8 1l-1 -1q-8 0 -16 4t-16 -4q-9 -2 -21 -1t-19 9q-2 3 -4 7t0 9q5 45 12 89.5t13 88.5q2 11 4 24t4 24q-4 11 -10 12q-2 -1 -3 0t-2 -1q0 1 -3 1q-1 -2 -1.5 -0.5t-2.5 0.5q-17 2 -36 1t-36 1q-10 4 -13 12q2 9 10 12t14 6 q0 2 1 4t-1 4t-7 2q-4 0 -8 2q-3 -1 -7.5 -1.5t-6.5 -3.5l-1 1q-2 -2 -5 -3.5t-5 -4.5q-8 -23 -12 -48t-10 -48q-8 -43 -16 -83.5t-14 -85.5q-2 -16 -14 -22q-8 -2 -15 -2t-12 5q-5 4 -4.5 10t-4.5 9q0 1 -4 3q-7 0 -10 -7q-4 -8 -10 -15.5t-17 -7.5q-12 1 -23 1 q-10 0 -23 1q-4 0 -6 3l-4 6q-4 12 -1 24.5t4 25.5q5 27 9 54.5t8 56.5q-2 22 -1.5 43t5.5 41q11 88 26.5 176.5t34.5 176.5q5 20 7.5 41.5t19.5 34.5q11 5 23 1q2 -2 4.5 -4t1.5 -6q-1 -8 -2.5 -13.5t-2.5 -13.5q2 -1 2 -3q0 -1 2 -1q1 1 2 0q8 2 11 10q6 10 10 22.5 t18 17.5q8 2 12.5 -5t12.5 -7q8 1 13.5 6.5t13.5 5.5q9 2 19 0.5t19 0.5q9 0 14 -7z" />
<glyph unicode="I" horiz-adv-x="322" d="M293 699q12 -2 13 -13q3 -4 1.5 -9t-3.5 -9q-8 -28 -14.5 -55t-13.5 -55q-2 -8 0 -12.5t4 -12.5l1 -10q0 -3 -1 -6.5t0 -5.5l-1 3q-4 -17 -9.5 -34.5t-8.5 -34.5l-1 -1q-28 -103 -49 -208t-38 -213q-2 -5 -7 -9.5t-11 -5.5q-8 -3 -15.5 -1.5t-15.5 0.5q-17 -9 -38 -6 q-9 4 -13 10q-3 8 -1.5 17.5t-6.5 12.5q-5 -2 -7.5 -6t-4.5 -8.5t-4.5 -9t-7.5 -7.5q-3 -2 -8 -4t-9 0q-3 0 -5 3t-4 5q-2 11 1 22.5t3 22.5q3 32 8 65t7 65q-1 3 -2 5.5t1 5.5q-1 17 2 35.5t5 36.5q3 28 7.5 58.5t8.5 56.5q5 24 8.5 47.5t8.5 48.5q3 23 7.5 46.5t9.5 46.5 l-1 2h1t1 2q2 7 3 14.5t4 13.5q2 18 6 35t8 35q2 8 9 12.5t14 6.5q1 -2 3 0q9 -3 17 -1t16 -5q4 -6 7 -8l1 1q0 -2 1 -2t3 -2q2 2 3.5 1.5t2.5 2.5v-1q4 -1 6 2.5t7 4.5q8 0 11 -3q2 -2 2.5 -4.5t2.5 -4.5q-4 -7 -1 -14q3 -5 8 -2q6 6 6 11q5 8 7 16t13 10q9 2 18.5 1 t18.5 -1h5z" />
<glyph unicode="J" horiz-adv-x="433" d="M350 695q5 -5 5.5 -10.5t2.5 -11.5l-1 -6q0 -5 4 -6q5 -2 7.5 2.5t5.5 7.5q4 9 11 15.5t17 6.5q11 2 14 -8q0 -2 1 -3q-1 -5 -0.5 -9t-1.5 -8q-11 -43 -20 -84t-18 -83l-8 -27q-5 -10 -7 -22.5t-6 -23.5q-12 -54 -22.5 -107.5t-19.5 -110.5q-2 -5 -2 -12q0 -6 -2 -12 q2 -3 1 -7t0 -8q0 -19 -4 -35q-2 -5 -3 -10t-3 -11l-1 2q-17 -32 -45.5 -55.5t-60.5 -36.5q-11 -5 -21.5 -8t-21.5 -8q-3 2 -5.5 0.5t-4.5 -1.5q-20 -4 -42 -4.5t-42 1.5q-5 0 -11.5 1t-12.5 1v-1q0 2 -1.5 1t-2.5 0q-7 4 -12 13q-2 14 0.5 27.5t3.5 27.5q2 2 3 4.5t3 3.5 q3 0 4.5 3.5t5.5 1.5q4 1 9.5 0.5t8.5 3.5q4 8 0 11q-4 6 -10 3q-2 -2 -1.5 0t-1.5 1q-6 0 -10 4.5t-7 7.5q-1 7 2 14q8 11 20 8q8 -4 16 -3.5t16 1.5q5 3 10.5 3.5t9.5 5.5q2 -2 2 0t1 1h1l-2 1q6 1 9 4.5t8 8.5v1h1q8 11 13.5 21.5t4.5 24.5q2 11 2.5 22t2.5 21 q11 106 26.5 211.5t38.5 211.5q2 2 3 5t3 5v-1q11 11 22.5 9t23.5 0h33q12 5 25 7.5t27 -0.5z" />
<glyph unicode="K" horiz-adv-x="580" d="M469 688l2 -14q-2 -5 -3 -10t-2 -8q2 -2 4.5 -3.5t5.5 -0.5l6 8t8 7q5 2 12.5 2.5t12.5 -4.5q3 -3 6.5 -4.5t6.5 -5.5q5 -5 8 -10.5t9 -10.5q4 -4 9.5 -7.5t6.5 -10.5q2 -2 2 -8q-3 -2 -5 -5.5t-4 -5.5q-45 -52 -85.5 -103t-82.5 -106q-3 -5 -5.5 -9t-2.5 -9 q2 -10 6 -18.5t8 -17.5q6 -12 12 -26l12 -28q6 -11 15 -22t13 -24q10 -22 18.5 -44t18.5 -45q2 -2 2 -5q0 -2 1 -4q6 -16 12.5 -30t11.5 -31q0 -5 0.5 -9.5t-3.5 -8.5q-8 -10 -22 -14.5t-25 -11.5q-5 -2 -11 -2q-5 0 -10 3q-4 1 -6 5.5t-4.5 8.5t-5.5 6.5t-8 1.5 q-3 -5 -3 -8l1 -1q-1 -7 -1.5 -14.5t-7.5 -11.5q-2 -2 -6 -3t-7 -3q-5 -3 -10 -5t-10 -5q-5 -2 -10.5 -3t-10.5 4q-6 2 -7.5 6.5t-4.5 9.5q-47 141 -104 276q-6 8 -12 8q-8 -2 -11 -8q0 -6 -2 -8l-4 -22t-4 -21q-8 -39 -15 -79t-12 -78q1 -4 -0.5 -6t-0.5 -7h-1l1 -1 q-5 -15 -4.5 -29.5t-8.5 -27.5v-1q-4 -6 -12 -7t-14 0q-8 3 -10.5 11.5t-2.5 15.5q-2 5 -6 3q-8 -7 -10.5 -16.5t-12.5 -12.5q-14 -3 -30 -1h-20q-9 0 -16 7q-4 0 -5 3.5t-3 6.5q-1 7 0.5 14.5t0.5 16.5q2 6 2 12q1 10 2.5 20.5t1.5 20.5q2 12 2 23t3 22q-2 11 2 22 q-1 8 0.5 14t1.5 14q1 5 1.5 8t0.5 8q4 26 6 47.5t6 45.5q-1 5 1 8t1 8q2 14 5 30t4 31q2 1 1 1.5t0 2.5q2 15 5 31t5 30q-2 28 4.5 53t9.5 52q4 19 7.5 38t8.5 38q2 17 7 33.5t22 23.5q6 1 13 -0.5t12 -9.5q2 -7 -0.5 -16.5t0.5 -18.5q1 -3 3 -3h4q6 6 6.5 15t5.5 15 q9 11 20.5 10.5t24.5 1.5q3 0 7 -0.5t8 0.5q3 2 6 3t5 3q10 2 20.5 3t20.5 -3q3 -2 4 -5t4 -6q1 -6 -0.5 -11t-3.5 -11q-7 -16 1 -29q-1 -2 0.5 -4t-0.5 -4q1 -4 0.5 -7t-0.5 -7h-1q-9 -29 -16 -58t-15 -56q-1 -5 -3 -10t0 -10q3 -3 10 -5q11 6 16.5 17.5t13.5 19.5 q28 36 56 74.5t58 75.5q6 10 12.5 18t14.5 17q3 2 6 5.5t8 0.5q5 -1 12 -3t9 -8z" />
<glyph unicode="L" horiz-adv-x="411" d="M211 696q2 2 3 -1.5t4 -3.5q4 -4 2.5 -10.5t-0.5 -10.5l-1 2q-1 -4 -2 -8.5t1 -7.5q-2 -3 0 -4.5t4 -3.5q7 2 10.5 8t5.5 11q4 9 9 17t16 8q7 -2 13.5 -0.5t14.5 -2.5l-1 1q7 -2 7 -9l-1 1q2 -8 0 -16.5t-4 -16.5q1 -2 1.5 -4t0.5 -5q1 0 1 3q-1 -11 1 -21t0 -19 q-5 -12 -8 -25t-7 -27q-23 -91 -43 -184.5t-34 -183.5l-2.5 -12.5t3.5 -12.5q2 -1 3 -3t3 0q5 -3 10 -1.5t11 -0.5q2 2 3 1t3 -1q4 2 7 1t6 -1q8 0 16.5 0.5t17.5 -0.5q2 2 4 0.5t5 -0.5q25 -2 46.5 -1t46.5 -2q11 -6 7 -17.5t-4 -19.5q0 -11 -7.5 -18t-6.5 -18 q2 -1 1.5 -2.5t0.5 -3.5q8 -6 7 -13.5t-3 -15.5q-2 -5 -3 -12t-2.5 -13.5t-5.5 -11t-12 -5.5q-6 2 -10 0.5t-10 0.5q-32 2 -64 2.5t-62 -0.5q-9 -1 -18 2.5t-17 7.5q-8 -2 -14 -7t-16 -3q-13 0 -29 0.5t-30 -1.5q-8 2 -15.5 5.5t-8.5 11.5q-1 3 -1 6t-4 4t-7 -3t-5 -7 q-2 -4 -4.5 -7t-4.5 -7q-3 0 -4 -2t-3 -2q-5 0 -7.5 2t-6.5 5q-4 11 -2 23.5t4 23.5q6 45 13 92t15 92q-1 5 -1 9q0 5 -2 10l1 2q-3 13 -1.5 27t3.5 27q5 32 10 63t10 63q12 72 27 144q0 7 1.5 14t3.5 14q3 17 6 33t9 32q9 9 22 12q11 -1 22 0.5t20 8.5q6 2 11.5 1.5 t11.5 0.5q2 -2 5 -2t4 -2zM293 687l3 -4z" />
<glyph unicode="M" horiz-adv-x="824" d="M397 691q3 -1 3.5 -5t3.5 -5q0 -2 1 -3t-1 -2q1 -2 0.5 -3.5t1.5 -2.5q5 -26 11 -52.5t11 -54.5l1 -1l-1 -1q1 -1 1.5 -3t1.5 -4q4 -15 5.5 -29t2.5 -31q-2 -11 -2.5 -23t4.5 -23q0 -2 -0.5 -3.5t1.5 -2.5q-2 -7 1 -14t2 -14q2 -5 3 -11.5t6 -10.5q10 -3 15 7 q13 25 23 49.5t24 49.5q8 20 18 38t19 38v2q2 -1 2 0q0 2 1 3q5 8 7.5 15.5t7.5 15.5q4 7 7 14t7 14q5 6 11 10t11 8q6 9 10.5 18t11.5 17q6 5 14 6.5t14 -0.5q2 2 5.5 0.5t4.5 0.5q4 -2 13 0q9 -2 17 -6.5t12 -14.5q5 -9 4 -19t4 -19q0 -5 5 -7q7 2 6.5 8.5t0.5 11.5 q1 9 0 19t7 15q2 0 4 -0.5t4 0.5q-2 2 -2 1q2 1 2 -1q0 -1 2 -1q8 -9 9 -19.5t3 -22.5q11 -63 17.5 -118.5t14.5 -115.5v-1q-1 -2 0 -5.5t1 -6.5q1 -33 5.5 -65.5t0.5 -64.5q0 -8 -0.5 -16t1.5 -16q6 -96 9 -196q1 -4 0 -7.5t-2 -6.5q-2 -11 -11 -17q-5 -2 -14 0 q-7 3 -8.5 10t-7.5 12q-2 -1 -3.5 0t-3.5 0q-1 1 -2 0t-1 -2q-2 -4 -4 -8.5t-3 -9.5q-2 -1 -3 -3t-3 -2q-2 -2 -4 -1q-1 -2 -3.5 -1.5t-3.5 -1.5v1q-11 -2 -23 0.5t-23 3.5q-7 0 -14 0.5t-13 2.5q-13 9 -13 25t-3 29q-2 17 -4 34.5t-4 34.5q-2 16 -4 29.5t-4 28.5 q-2 2 -1 3.5t0 3.5q-5 24 -9 50.5t-10 52.5q-2 0 -2 1q0 2 -1 3q-4 4 -12 4q-9 -11 -13 -22t-11 -23q-14 -35 -29 -70t-28 -70q-2 -6 -5 -11t-4 -11h-1q0 -3 -3 -6l-5 -5l-1 -3q-5 -5 -10.5 -11t-6.5 -14q-3 -2 -3 -6t-2 -7q-3 -8 -7.5 -16t-15.5 -9q-19 -2 -37 -1t-36 1 q-6 2 -12.5 5.5t-8.5 11.5q-9 45 -18 89t-20 88l-5 9q-1 3 -3 6.5t-4 7.5q-3 11 -5.5 21.5t-4.5 19.5q-2 7 -3.5 14.5t-4.5 13.5q-2 2 -3.5 4t-5.5 0q-5 -3 -7.5 -11t-6.5 -13l1 -1h-1q-8 -21 -17.5 -42.5t-17.5 -43.5q-2 -4 -4.5 -10.5t-3.5 -11.5q-1 1 -1 -3 q-7 -19 -14.5 -38t-13.5 -37q-2 -5 -3.5 -9.5t-3.5 -9.5q-5 -14 -9.5 -28.5t-9.5 -28.5h-1q-6 -9 -20 -12h-10t-10 1l-1 -1q-8 0 -19 2t-15 11q-1 5 -0.5 11.5t-6.5 10.5q-3 1 -7 -3v1q-5 -2 -6.5 -6.5t-4.5 -9.5q2 -1 0.5 -2t-2.5 -3q-1 -3 -4 -4.5t-3 -4.5q-2 -2 -4.5 -1 t-4.5 -1q-7 0 -14 -0.5t-11 4.5l-3 3q-2 5 -1 10l2 10q3 9 6 17.5t5 17.5q2 2 1 4t1 4q9 31 19 61t20 62q6 17 11.5 34t12.5 35q0 3 1 4q8 20 16.5 43.5t16.5 45.5q23 60 47.5 118.5t50.5 115.5q11 28 27 58q2 5 4.5 9t4.5 8q9 11 22 13.5t25 0.5q4 -1 6.5 -3t4.5 -4h1 q1 -4 3.5 -6.5t4.5 -7.5q2 -3 7 -1q5 4 5.5 9.5t1.5 10.5q1 2 3.5 2.5t0.5 2.5q2 -2 2 -1q7 5 17.5 4.5t18.5 -1.5q5 0 8 -2.5t6 -4.5zM495 95v-1v1zM50 18l2 1l-1 -1h-1z" />
<glyph unicode="N" horiz-adv-x="685" d="M631 690q2 -4 0.5 -8.5t3.5 -6.5q5 1 8 5.5t6.5 9t7.5 6.5t10 -2q5 -4 3 -9t-2 -10q-6 -11 -8.5 -24.5t-6.5 -26.5q-9 -38 -18.5 -75t-17.5 -75l-25 -113q-15 -73 -27.5 -145.5t-22.5 -145.5q2 0 2 1v1q-3 -7 -1 -14q-2 -1 -2 -4v-4l1 -1q-3 0 0 -3q-1 0 -1 -1 q-2 -7 -3 -15t-3 -16q-2 -2 -3 -4l-2 -4q-5 -6 -15.5 -5.5t-18.5 1.5l-7 4v-2q-3 2 -4 5t-6 5q-6 2 -8.5 -3t-7.5 -7q-7 -5 -15 -3.5t-16 0.5q-7 2 -11 5q0 -1 -2 1q-2 5 -6 10.5t-6 12.5q-15 30 -30.5 60t-30.5 60q-13 8 -19.5 22.5t-13.5 25.5h-1q-12 26 -27 53t-29 54 q-5 6 -7.5 11.5t-8.5 11.5q-8 2 -12 -2q-6 -7 -8 -20q-15 -69 -29 -138.5t-24 -138.5l1 -2q-5 -11 -12 -17l1 -1q-5 -4 -11 -3t-13 0q-5 1 -11 7h-1q-1 1 -2 3.5t-3 4.5l1 21q-1 2 -2 3.5t-4 2.5q-7 0 -7 -6q2 -3 -1 -5t-1 -5q-3 -4 -4.5 -10t-1.5 -8q-3 -5 -8.5 -9.5 t-12.5 -3.5q-8 -1 -17.5 0.5t-17.5 0.5q-11 1 -19 9q-7 11 -5 24.5t2 24.5q2 25 5 48t5 46q3 12 3 26l1 2q2 15 4 31.5t5 32.5q0 4 1 8t1 9q11 74 24.5 149t30.5 149q1 3 2 6.5t1 6.5q3 2 5 7q11 10 12.5 26t6.5 30q3 10 5 20t5 20q0 7 5 11t10 7q13 2 27.5 0.5t28.5 0.5 q16 -8 16 -24q2 -5 3 -5q8 -2 9.5 4t5.5 10q1 6 9 12q12 5 21 -2.5t15 -15.5q16 -31 32.5 -60.5t30.5 -60.5q-1 -3 1 -4t3 -3q18 -39 37 -78.5t36 -77.5l4 -4t6 -1q9 2 8 10t1 14q9 62 19 130t23 133l2 8t4 7q4 10 16 9.5t21 1.5q4 0 6.5 -1t5.5 -3q4 -4 4 -9q0 -4 -1 -9 q-4 -6 -3.5 -15t-2.5 -17q-2 -8 4 -10q3 -3 7 1q8 11 11 24.5t8 25.5l1 -1l1 4q2 -2 2 0q0 3 2 4q5 5 11 6t13 1q8 -1 18.5 -0.5t14.5 -9.5z" />
<glyph unicode="O" horiz-adv-x="629" d="M408 699q-34 3 -74 -5q-10 -2 -20 -5t-17 -11q-2 -5 -3 -12t1 -12q3 -7 -5 -12q-3 -1 -5 0t-5 1q-5 5 -11 9.5t-14 2.5q-43 -16 -80.5 -45t-66.5 -67q-8 -8 -8 -19t-3 -21q-12 -20 -22 -40t-19 -42q-25 -59 -33.5 -127t9.5 -131q9 -34 26.5 -66t44.5 -53q26 -21 57 -31.5 t63 -12t63 5t58 18.5l1 -1l2 1q1 -1 0 -1t-1 -1l2 2v2l1 -1q11 8 19.5 11t19.5 11q1 1 2 0.5t1 1.5l1 -1q5 5 12 10l14 10q17 12 31.5 28t30.5 31q25 32 47.5 64t38.5 69q31 63 42 135t-12 141q-13 41 -37.5 76.5t-60.5 58.5q-41 26 -89 29zM337 616q0 -7 -5.5 -8t-9.5 -4 q-2 -1 -4.5 -2t-5.5 1q-4 4 -1 9q3 4 8 6l10 4q8 0 8 -6zM419 456q9 -52 -6 -102t-38 -97q-14 -26 -33 -51.5t-48 -35.5q-19 -9 -43 -7.5t-39 15.5q-12 8 -19.5 22.5t-9.5 27.5h-1q-2 8 -3 20t1 20l-1 1q1 3 1 7q0 5 2 10q-1 3 0 7l2 8q4 16 7.5 31t11.5 29q0 2 1 5t3 5l2 1 q-2 1 -1 1t0 1q2 3 3 6t4 5q5 11 12 20t14 19q4 3 7 7.5t8 7.5q18 17 36.5 29t42.5 18q5 2 9 6t4 10v5q1 2 0 1.5t-1 0.5q-1 5 -2 9t1 9q8 2 14.5 -1.5t13.5 -6.5q17 -10 29.5 -26.5t15.5 -36.5z" />
<glyph unicode="P" horiz-adv-x="544" d="M189 700q-12 -2 -22 -1.5t-22 1.5q-17 -2 -36 -1.5t-36 -2.5q-2 -2 -3.5 -3t-3.5 -4q-2 -10 -4.5 -19.5t-0.5 -20.5q2 -4 5 -6.5t5 -7.5t0.5 -8.5t-4.5 -6.5t-6.5 -5t-4.5 -5h1q-2 -3 -2.5 -7t-2.5 -7q-1 -13 -4 -26.5t0 -27.5q4 -10 13 -10.5t17 -1.5q11 -1 20.5 0 t19.5 -4q1 -2 2 -4.5t0 -4.5h-1q-5 -3 -10 -5.5t-10 -2.5q-2 -4 -3 -1.5t-2 -0.5q-2 2 -2.5 0t-2.5 0q0 -2 -4 -4q-2 3 2 3q-2 0 -2 1v-3l-1 1l-1 -3l-2 1l-2 -2l1 -1l-1 -1q-1 0 -1.5 -1t-0.5 1q-1 1 -0.5 -0.5t-1.5 0.5v-2q0 -2 -1 -1.5t-1 -0.5l1 -1q-1 0 -1 -1t-1 0 q0 -1 -3 -4q-3 -14 -5 -29.5t-5 -29.5q0 -8 -2.5 -16t-0.5 -16q2 -4 2 -8t2 -7q-1 -16 -3 -30.5t-4 -28.5q-3 -16 -3.5 -30.5t-8.5 -28.5q-6 -17 -6.5 -36t-3.5 -36q-1 -10 -2 -19.5t-2 -19.5q-2 -26 -3.5 -49t-5.5 -49q2 -13 -1.5 -27t6.5 -25v-1l-1 1l9 -2q6 0 11.5 5 t11.5 -2v-1q4 -1 7.5 -3t8.5 0v-1l3 2q9 3 9 14q2 8 3.5 17t10.5 12q7 -4 7 -13t1 -16q0 -5 3 -8.5t5 -5.5q8 -1 17.5 -1.5t19.5 1.5q4 2 7.5 5.5t3.5 8.5q0 19 5 37q2 13 4.5 24t4.5 23q2 14 5 29t5 30q3 5 2.5 12.5t3.5 11.5q2 20 7 40.5t9 42.5q1 5 2.5 7t5.5 5 q2 1 4 -0.5t4 -2.5q2 -2 3.5 -5t3.5 -5q1 -6 5.5 -5.5t9.5 -0.5q4 0 8.5 1t6.5 1t4 0.5t4 0.5q4 -2 6 -5q0 -5 -4 -6q-8 -4 -14 -6.5t-13 -7.5l2 1q-1 -3 -2.5 -5.5t-0.5 -5.5q1 -4 3.5 -6t5.5 -4q8 0 16.5 2.5t15.5 4.5v-2q1 4 2.5 3t3.5 2q1 -1 6 2q2 -2 2.5 0.5t2.5 0.5 q4 3 8 4t8 3q7 2 14 5.5t13 5.5q2 2 3 1.5t1 1.5q9 3 18 10q1 1 2.5 0.5t2.5 1.5q36 20 63 46t51 60q6 9 11 19.5t10 17.5q5 11 9.5 24t7.5 27q1 4 1 7q0 4 2 6q2 24 1.5 49t-8.5 48q-1 2 -1.5 4t-2.5 4q-4 14 -12.5 26t-16.5 26q-2 2 -4.5 4t-3.5 4q-6 5 -11.5 9.5 t-10.5 9.5q-12 7 -29 16q-4 1 -6 3.5t-4 1.5l-1 1h-1q1 1 0 1.5t-2 -0.5q-15 14 -35 15t-38 3l-2 1h-17q-34 2 -66 2q-31 0 -64 2zM285 530h11q7 0 12 -2l1 -2q2 2 4 1l4 -2q2 -2 5 -2q4 0 6 -4q2 -2 5.5 -4t5.5 -6q2 2 1.5 -1t2.5 -1q1 -3 2.5 -5t3.5 -5q11 -25 1.5 -50.5 t-29.5 -45.5q-21 -21 -50 -32q-5 -2 -9.5 -3.5t-9.5 -2.5l-2 1v-1l-1 1l-1 -1q-2 2 -6 1.5t-6 4.5q-5 6 -2.5 11t3.5 11q0 2 0.5 5t2.5 5q-2 3 0 6q7 23 12.5 47t12.5 45v2q2 5 3 10.5t3 11.5q3 3 6 5.5t8 1.5zM236 522q1 -3 0.5 -5t-0.5 -4q-2 -1 -1 -2.5t-1 -1.5 q0 -4 -3 -7h1h-1q-1 -2 -1.5 -4t-2.5 -4v-2v1q-2 -2 -2 -7q0 -4 -5 -5q-6 -2 -8 6q1 3 1 6q0 4 2 6q-2 0 -1.5 1.5t1.5 2.5q2 5 3.5 12t6.5 10q4 0 6.5 -1t4.5 -2zM82 502v-1v1z" />
<glyph unicode="Q" horiz-adv-x="608" d="M432 690h-3q-29 9 -62.5 7t-61.5 -16q-2 -2 -5 -3.5t-6 -2.5q-1 -3 -3.5 -4t-4.5 -3t-3.5 -4t0.5 -4q-4 -6 -2 -11.5t3 -12.5q4 -8 10 -10t13 -1t14 3t14 1q1 0 4 -5q1 -5 -3.5 -7t-6.5 -4q-5 -4 -11 -5q-1 -1 -3 -1q-1 0 -1 -2q-7 -3 -18 -1q-4 2 -6.5 6t-4.5 9h2 q-2 2 -2.5 4.5t-1.5 4.5q-5 5 -11.5 10t-13.5 5v1q-8 1 -18 -2.5t-19 -8.5q-12 -6 -22.5 -12t-21.5 -14q-25 -16 -44.5 -36.5t-34.5 -43.5q-9 -13 -11 -31.5t-9 -29.5q-27 -46 -44.5 -100.5t-17.5 -109.5q1 -7 0.5 -15t1.5 -14q2 -30 9.5 -54.5t18.5 -52.5 q18 -35 46.5 -64.5t69.5 -45.5q23 -10 44 -11t46 1q2 1 2.5 -0.5t1.5 0.5q31 4 58.5 14t52.5 24q2 0 5 1.5t5 3.5q3 0 7.5 -0.5t6.5 -2.5q6 -9 10.5 -18t11.5 -18q1 -2 2 -5t3 -4h-1l6 -6q4 -1 7.5 -3t7.5 -2q5 1 11 2t11.5 2t9.5 3.5t5 7.5q3 9 -4 13.5t-5 12.5q2 5 9 3 l24 -23q2 -4 5.5 -5t7.5 -3q13 1 27.5 4t28.5 5q5 2 6 6t3 7q-2 4 -1 5q-1 6 -4.5 9.5t-5.5 8.5q-5 6 -9 11t-4 13q2 7 0.5 13t-4.5 12q-8 10 -15.5 20.5t-15.5 21.5q-4 8 -9.5 13t-6.5 15q-1 5 1.5 9.5t4.5 9.5q26 42 45.5 87.5t29.5 96.5q2 17 5 34t2 34q2 38 -9 78 t-28 72q-1 3 -2.5 5.5t-2.5 4.5v1q-22 32 -50.5 57.5t-65.5 39.5zM330 559q2 -2 1.5 -4t-1.5 -4q-3 -3 -7 -3t-9 1q-4 2 -5 4q-2 4 2 7q4 2 9.5 3t9.5 -4zM414 441q2 -8 3 -13.5t2 -13.5q-2 -2 0 -2.5t1 -2.5q2 -12 2 -28t-2 -29q-2 -2 -1 -3.5t0 -3.5q-2 -14 -6 -27t-9 -26 q-2 -5 -7 -5q0 2 -1 1l-1 -1q-10 4 -19 0.5t-17 -7.5q-8 -7 -15.5 -12.5t-12.5 -15.5q-2 -6 0.5 -11.5t-4.5 -7.5q-4 -2 -7 1t-6 4h-1h-1l1 -1h-1q-2 1 -0.5 0.5t0.5 0.5q-8 -2 -17.5 -5.5t-12.5 -14.5q-2 -4 -0.5 -8t4.5 -8t6.5 -8t5.5 -8q3 -6 7 -10.5t4 -10.5h-1 q1 -5 -2 -8q-18 -11 -44 -11q-25 0 -46 14q-5 3 -10.5 7.5t-10.5 9.5q-11 14 -19 33q-3 6 -3.5 13t-1.5 14h1q-1 1 -0.5 4t-1.5 3q2 32 12 64t26 59l4 7q20 29 39.5 53t48.5 46v-1q2 4 6.5 6.5t6.5 4.5q13 10 13 27q3 2 4.5 4.5t6.5 2.5q29 -5 49 -27.5t28 -48.5z" />
<glyph unicode="R" horiz-adv-x="534" d="M236 701q-2 1 -6 -0.5t-6 0.5q-15 -1 -31 -1.5t-30 -0.5q-20 -1 -40 -1.5t-40 -2.5q-2 -3 -6 -2t-6 -4q-2 1 -2.5 -2t-2.5 -4q-2 -11 -4 -21.5t-2 -22.5q3 -7 3 -17q0 -9 -1 -17q0 -8 6 -12.5t12 -6.5q1 -1 1 -5q-3 -2 -4.5 -4t-5.5 -2q-5 -4 -9.5 -5.5t-8.5 -8.5 q0 -5 -2.5 -11.5t1.5 -11.5q3 -6 9 -8t12 -1q3 -2 4 -1.5t4 1.5q1 -2 2 -1t2 -1q4 1 9 0l1 1q3 -1 5 0t2 -1v1q3 1 5 0.5t6 -0.5q5 0 7 -8q0 -6 -5 -9q-8 -2 -14 -2.5t-13 -3.5q-11 -7 -18 -23q-3 -21 -6.5 -42t-6.5 -41q1 -1 -0.5 -1.5t0.5 -1.5q-2 -8 -2.5 -17t-2.5 -17 q-6 -14 -1 -27t2 -27q-6 -38 -11.5 -77.5t-10.5 -81.5q0 -9 -2 -19.5t-2 -20.5q-5 -26 -7 -56q-1 -10 -2.5 -21.5t6.5 -19.5q9 -7 18 -6q9 -3 18.5 -5.5t19.5 0.5v2q7 2 9 8l4 12t3 10t4 9q5 4 9 -2q2 -6 2 -15t2 -14t6 -5t7 -1q5 1 9 0t8 3q1 2 3.5 1t0.5 2l1 1l-1 1h2 q2 6 2.5 12.5t2.5 12.5q1 7 2.5 14t1.5 13q4 6 7.5 12.5t5.5 13.5q7 37 14 73.5t16 73.5q2 5 2 11q0 7 5 11q6 2 9 -1q23 -41 43.5 -81.5t39.5 -82.5q5 -8 8 -16t10 -14q18 -38 33 -75l6 -7q4 -4 10 -3t11 1q6 2 6.5 7.5t5.5 7.5q8 2 13.5 -2.5t12.5 -6.5q14 2 28 4.5 t28 4.5q13 3 15 14q-3 20 -9.5 39.5t-11.5 38.5q-8 29 -18.5 59.5t-21.5 60.5q-5 14 -9.5 27.5t-9.5 27.5q-2 8 -5.5 15.5t-3.5 16.5q2 3 3 7t4 6q45 32 77 82.5t37 107.5q2 33 -4.5 62t-23.5 56q-3 1 -3.5 3.5t-3.5 3.5q-24 37 -63 52t-81 20v2q-3 -2 -6.5 0.5t-7.5 0.5 q-9 1 -20 1q-10 0 -20 1q-8 -1 -17 0t-17 -1q-5 2 -16 2zM297 528q5 -2 10.5 -3.5t10.5 -5.5q3 -3 7.5 -5t6.5 -6q14 -17 13.5 -37t-9.5 -38t-24.5 -31t-32.5 -24q-8 -4 -16 -6t-17 -4q-3 1 -8 4t-3 9q5 18 8.5 33.5t8.5 33.5q3 14 7.5 28t8.5 27q0 5 2 9.5t2 9.5q5 7 14 7 q4 -1 11 -1zM233 520q0 -2 0.5 -3.5t-2.5 -3.5q2 -3 0 -7l-4 -8q1 -3 -1.5 -4t-0.5 -3l-5 -7q-1 2 -1.5 0.5t-1.5 -0.5q-4 2 -4 5q2 9 1.5 18.5t8.5 14.5v-1h1q0 2 1 1t3 1q0 -2 1.5 -0.5t3.5 -2.5z" />
<glyph unicode="S" horiz-adv-x="451" d="M374 697q9 0 12 -2h2h-1v-1q2 1 2.5 0.5t2.5 -0.5q11 -1 23 -1.5t17 -14.5q2 -11 0 -21.5t-3 -21.5q-2 -9 -3 -18l-2 -18q-2 -11 -14 -16q-7 -3 -15 -1t-12 -6l-1 1q-2 -1 -2 -3v-3q3 -4 8.5 -5.5l11 -3t9.5 -4.5t4 -10q1 -2 -1 -5.5t1 -4.5h-1v1h1q0 -3 -2.5 -6t-4.5 -5 q-6 -6 -17 -5t-18 -3l2 -1l-2 -1q0 1 -3 1l-1 -1l1 -1q-5 -2 -11 -0.5t-11 -0.5q-2 2 -6 1t-6 0q-13 0 -22.5 -2.5t-20.5 -6.5q-2 -3 -5.5 -5t-6.5 -5q-10 -8 -12 -21.5t3 -24.5q1 -7 5 -12.5t8 -11.5q4 -3 7 -7.5t7 -7.5q1 0 1 1q0 -3 1.5 -4t2.5 -3h1q17 -17 32 -37 t23 -43q2 -6 4.5 -12.5t4.5 -12.5q5 -11 6.5 -23t3.5 -23q-1 -2 0 -6t0 -7q3 -39 -12 -75q-2 -8 -6 -16t-7 -16q-18 -33 -45 -63q-5 -2 -8 -5.5t-7 -6.5q-9 -5 -17.5 -11.5t-16.5 -11.5l-1 1q-20 -13 -47 -21.5t-53 -13.5q-5 0 -9.5 -1t-9.5 -2q-3 2 -8 -1q0 1 -2 1 q-1 -2 -2 -0.5t-3 0.5q-22 0 -44 0.5t-43 6.5q-12 5 -15 17q-2 7 1.5 15.5t0.5 16.5q-3 5 -5.5 10.5t0.5 11.5q1 10 5 17q1 5 1.5 10.5t3.5 10.5q8 9 17.5 8.5t20.5 -0.5q6 2 6 5q-2 7 -8 9t-11 5q-4 2 -7.5 4.5t-5.5 7.5t1.5 6.5t5.5 4.5q7 2 12.5 1t12.5 -3q2 1 4.5 -1 t5.5 -2q12 -3 26.5 -4.5t28.5 0.5q6 2 13 2t12 5q2 0 3.5 1.5t3.5 0.5v1q2 0 3 1.5t3 1.5q2 1 3 2.5t3 2.5q0 2 2 2v-1q6 3 10 9t7 11q5 11 5 21q0 11 -4 22l-1 2q-5 14 -15.5 24.5t-22.5 20t-24 18.5t-21 21q-8 12 -18.5 25.5t-17.5 27.5q-1 0 -0.5 1.5t-0.5 2.5 q-12 22 -18 49t-4 52q0 14 3.5 27t8.5 25q1 10 6 18t9 16q6 11 12.5 19.5t13.5 17.5q5 2 7.5 6.5t7.5 7.5q14 14 30.5 26t33.5 20l1 2h1q26 12 57.5 20t60.5 10q8 -1 16.5 0.5t16.5 -0.5h15q8 0 16 -2zM411 536l1 2v-1z" />
<glyph unicode="T" horiz-adv-x="465" d="M229 699q-6 1 -13 0t-14 1q-16 -2 -33 -2h-33q-24 -2 -46 -1t-45 -3q-1 -2 -3 -2q-1 0 -2 -1q-11 -12 -11.5 -27.5t-3.5 -29.5q-1 -16 14 -25q1 -1 1.5 0t0.5 -1q2 2 2.5 0t1.5 -2v1q2 2 4 -2l1 1q5 -2 11 -2t11 -5q2 -5 -1 -8q-11 -6 -23.5 -5t-24.5 -3q-7 -3 -7 -10 t-2 -12q1 -8 7 -14.5t7 -14.5q1 -2 3 -3.5t3 -3.5q1 -1 1.5 0t2.5 -1q17 -3 35 -1t37 1q4 -1 5 -3t4 -4q4 -9 1 -20.5t-4 -21.5q-2 -2 -1 -4t-1 -4q-4 -33 -9 -66l-10 -66v-4t-2 -4q2 -1 1 -3t1 -4q-3 -6 -3.5 -13t-1.5 -13q-1 -5 -1 -10t-1 -9q-7 -60 -12.5 -117 t-10.5 -116q-1 -7 -1 -15q0 -7 2 -14q5 -12 17 -12q11 1 23.5 -0.5t23.5 1.5q9 4 10 14q0 2 2 4t1 4l1 1l-2 -1q1 8 3 15t7 13q2 3 7 0q6 -9 3.5 -20t-1.5 -22q2 -3 3 -5t5 -4q11 0 22.5 -0.5t17.5 8.5h-1q0 2 2 4t1 4q7 26 11.5 53t10.5 54l29 134q3 13 6 25t7 25 q3 9 2 17.5t0 16.5q8 30 15.5 59.5t16.5 60.5q2 8 3 16.5t-5 15.5h2q-1 3 -3 4t-3 3h-1q-4 5 -11 7t-6 11q1 4 4 4q4 0 6 1q17 0 32.5 -0.5t32.5 -0.5q13 1 27 -1t26 4q7 7 6 14q0 5 -2 8t-4 8l-1 -1q-5 5 -3 9q5 5 10.5 6.5t12.5 2.5q2 0 2 1q0 2 2 1v-1q0 2 2.5 2.5 t3.5 2.5h-2q3 7 4.5 18t3.5 19q4 11 0.5 20t-4.5 19l4 23q-2 12 -13 17q-22 2 -44 2t-42 1q-1 -1 -2 0.5t-2 -0.5q-29 1 -58 1h-58zM44 607v1l2 -1h-2zM249 519q3 -18 -11 -35l-3.5 -3.5t-4.5 0.5q-5 5 -3 11.5t3 13.5q4 4 6 11.5t10 5.5z" />
<glyph unicode="U" horiz-adv-x="623" d="M271 698q-15 -1 -29.5 -0.5t-30.5 1.5q-10 -1 -19.5 0.5t-20.5 -1.5q-9 -8 -22 -5.5t-24 0.5q-8 -2 -12.5 -8.5t-9.5 -13.5q-22 -88 -40 -177t-31 -180q-6 -48 -13 -96t0 -95q5 -26 15 -54t35 -44q17 -13 37 -18.5t43 -6.5q5 2 11 1.5t11 1.5q10 2 19 2.5t18 5.5 q4 -1 8 3q14 4 28.5 11t26.5 15l6 4t7 0q5 -4 4 -10q-2 -2 -1.5 -4.5t-1.5 -4.5l2 -1q-1 -7 6 -13q-1 -1 3 -3v1q5 -2 12 -1.5t13 0.5q2 0 2.5 1t2.5 0q0 1 1 1l-1 1q3 -2 2.5 1t1.5 1v2h1l-1 1q2 2 3.5 6.5t3.5 8.5l-1 2q2 5 5.5 11t9.5 8q8 -5 5 -14t-1 -17q-3 -4 0 -6.5 t5 -5.5l-1 -1q1 -1 2 -0.5t2 -0.5q4 -2 8 -1.5t8 -0.5q13 1 25.5 -0.5t23.5 5.5q3 -2 2.5 1t2.5 4q5 26 9.5 51t10.5 50q4 11 11.5 22t9.5 23l-1 1q4 18 7 37t8 39q11 48 22.5 95t23.5 95l37 136q8 26 16 51.5t16 51.5q3 2 3 5q0 4 1 8l-3.5 7t-6.5 6q-5 2 -10.5 1.5 t-11.5 -0.5q-19 2 -39 2q-19 0 -39 1l-1 -1q-25 3 -43 -2q-5 -2 -8.5 -6t-7.5 0q-2 -3 -5.5 -2.5t-6.5 -0.5q-11 -3 -16 -12t-8 -19q-11 -36 -19.5 -75.5t-17.5 -77.5q-14 -66 -26 -132t-23 -132q1 -8 -2.5 -15t-3.5 -15q-2 -4 -5.5 -5t-6.5 -2q-9 -1 -14 -5.5t-9.5 -10.5 t-8.5 -12.5t-10 -9.5q-5 -3 -9.5 -6t-9.5 -5q-2 0 -3 -1.5t-3 0.5h-1q-7 -2 -13.5 0.5t-13.5 6.5q-8 3 -11 11.5t-4 17.5q1 2 -1 4h1q-1 2 -1 5t-1 5q2 1 1 2.5t0 3.5q11 53 23.5 107t27.5 107q7 30 16 61t18 61q1 8 4.5 15.5t5.5 15t2 14.5q0 8 -5 16q-1 0 -2 2.5t-2 4.5 q-2 16 4 31t10 30l2 13q-3 2 -4.5 4.5t-4.5 4.5q-6 4 -10 5zM187 186l-1 3l1 -1v-2zM303 154q-2 -5 -7 -8t-10 -5q-1 0 -3 1t-2 3q3 5 7 9.5t10 5.5q3 -1 5 -6z" />
<glyph unicode="V" horiz-adv-x="518" d="M193 699l13 -1l13 -9q0 -5 1 -10.5t-1 -11.5q1 -11 0.5 -20t0.5 -20q0 -5 -1 -8.5t1 -6.5q1 -23 1 -48t2 -48q2 -38 3.5 -77.5t5.5 -74.5q1 -2 2.5 -4t3.5 -2l1 1v-1q2 0 4.5 1t4.5 2q4 6 5 13.5t3 13.5q13 44 25.5 88t26.5 88q6 23 13.5 46t14.5 44q2 7 5.5 15.5 t11.5 11.5q18 2 29 14q8 6 19.5 4t19.5 -1q17 -2 34.5 -1.5t34.5 -0.5q7 0 9 -5t5 -8q0 -5 -1.5 -7.5t-2.5 -7.5q-2 -7 -6.5 -13.5t0.5 -14.5q4 -2 7.5 -5.5t3.5 -8.5q1 -5 -1 -8.5t-4 -7.5q-16 -37 -30.5 -74t-29.5 -72l-44 -112q-18 -51 -35 -100.5t-33 -102.5 q-1 -3 -2.5 -6.5t-0.5 -6.5q-3 -14 -13 -25t-12 -26l-1 1q-5 -17 -8.5 -31.5t-8.5 -31.5q1 -5 -3.5 -10.5t-8.5 -8.5q-4 -2 -8 -2t-9 -2q-11 1 -20 0.5t-18 -0.5q-8 1 -13.5 3t-10.5 9q-2 2 -2.5 6t-3.5 6q1 1 0 3t-2 3q-4 6 -8 2q-3 -2 -2.5 -6t-0.5 -7q2 -2 0.5 -5 t-0.5 -5q-2 -4 -6.5 -5.5t-8.5 -3.5q-2 2 -3.5 0.5t-3.5 0.5q-4 0 -6 -1q-3 1 -7.5 3t-6.5 6q-9 20 -12 43.5t-11 44.5q-8 43 -18 85.5t-19 87.5q-1 3 0 6q-5 29 -10 56.5t-10 56.5l-1 2q-4 21 0 40q-8 47 -13.5 92t-12.5 92q-2 16 -3 30.5t-3 29.5q-2 3 0 7.5t4 7.5 q7 5 16.5 4t17.5 1q2 0 5.5 -0.5t5.5 1.5l2 -1q11 1 22 0t22 -1q6 -2 12 -6t8 -11q1 -3 1 -5t1 -6q2 -5 3 -11t6 -9q5 -2 6.5 2t2.5 7q1 5 1 11v11q0 6 2 11t7 8q5 4 10.5 3t10.5 1q2 -2 4.5 -1t5.5 0z" />
<glyph unicode="W" horiz-adv-x="886" d="M192 699q6 0 11 -3q3 1 7 -3q6 -5 6.5 -11.5t1.5 -12.5q-1 -14 -1.5 -26.5t-1.5 -25.5q1 -3 0 -6t0 -6q-2 -63 -2 -125t3 -125q3 -5 7 -3l3 2q3 7 5.5 14t6.5 14q0 5 2 8.5t3 8.5q29 72 58 143t60 140q3 5 6.5 9.5t8.5 3.5q14 2 29.5 1.5t27.5 -2.5q4 -2 10 -11l4.5 -4.5 t6.5 -2.5q4 1 6.5 4.5t4.5 5.5t5.5 1.5t7.5 0.5l-3 1q4 -1 6 0.5t5 -1.5q14 3 31 -4q2 0 2.5 -3t2.5 0q1 -5 1.5 -9t1.5 -9q2 -2 0.5 -2.5t-0.5 -2.5q1 -20 2.5 -36.5t3.5 -35.5q2 -37 6 -73.5t8 -73.5h2q-1 -11 0.5 -23t2.5 -22q2 -4 2 -9q0 -4 4 -6q-1 -1 0 -4q4 -6 10 -4 q4 2 6 6t4 9q14 44 29 87.5t32 87.5q6 20 13 38t14 35q0 2 2 8q2 2 2 3q0 2 2 4q1 6 4 12t5 13q4 8 11.5 14.5t16.5 6.5l1 -1l1 1q2 -2 4 -0.5t4 -0.5q10 2 15 -3q8 -8 3 -16.5t-5 -17.5q4 -4 9 -4q10 5 13 15t11 17q1 5 5 4.5t6 2.5q5 3 11 1.5t11 0.5q5 0 10.5 1.5 t11.5 1.5q11 -2 24 -2t24 -5q7 -5 5 -18q-3 -5 -3.5 -7.5t-3.5 -6.5q-32 -60 -60.5 -121.5t-54.5 -123.5q-18 -44 -35.5 -86t-33.5 -84q-12 -32 -24 -63t-21 -63q-2 -4 -3.5 -7.5t-3.5 -6.5q-5 -11 -13.5 -19t-9.5 -19v2q-1 -2 -0.5 -2.5t-1.5 -2.5q-2 -6 -4.5 -12.5 t-4.5 -12.5q-3 -8 -4.5 -15.5t-9.5 -12.5q-8 -4 -14 -2.5t-14 0.5q0 1 -1 1v0q-1 0 -1 -1v0h-1q0 1 -2 1v-1q-7 2 -16.5 -3t-17.5 -3q-9 -2 -21 0q-6 -1 -12 -0.5t-13 1.5q-4 2 -8 4.5t-4 7.5q-5 8 -6.5 15t-3.5 15q-16 66 -33.5 135t-30.5 136q0 4 -4 5q-8 1 -10 -5.5 t-5 -10.5q-38 -69 -73 -142t-69 -145q0 -1 -1.5 -2.5t-0.5 -3.5l-2 -3q-3 0 -6 -2.5t-6 -4.5q-9 -2 -20 -1.5t-20 0.5q-9 4 -13 9q-2 11 -2 25t-7 25q-2 -1 -3 0t-2 0q-2 -2 -2.5 -5t-0.5 -5q-2 -13 -0.5 -23.5t-5.5 -21.5l1 -1q-2 -1 -3 -2t-4 0q-6 -1 -12.5 0.5t-11.5 6.5 l1 1q-2 2 -2.5 7t-2.5 8q-4 20 -7 40t-6 41q-1 7 -2.5 15t-2.5 16q-5 28 -7.5 55.5t-12.5 55.5q-2 14 -2.5 26t-4.5 26q2 2 0 4q-1 2 -0.5 6.5t-2.5 6.5l1 1q-2 2 -1.5 3t-0.5 3h1q0 1 1 1l-2 2q0 11 -1.5 23t-1.5 23q-2 10 -2 19t-2 20q-2 10 -2.5 20t-1.5 19q-2 9 -2 17 q0 9 -2 18l1 1q-3 20 -4 43t-4 46q-2 22 -2.5 44t-2.5 42q2 2 0.5 3t-0.5 3q1 5 0.5 8.5t0.5 7.5l5 5t7 3q-8 -3 -10 -9q4 6 10.5 8.5t13.5 2.5q8 0 15.5 -0.5t13.5 1.5q0 1 1 0t2 0q2 0 4.5 1t5.5 1q2 3 12 3q17 0 34.5 0.5t36.5 -0.5q1 2 2 1t3 -1h17z" />
<glyph unicode="X" horiz-adv-x="625" d="M541 692q2 -4 3 -6.5t5 -4.5q8 -2 12 3t10 8q-1 2 1 1.5t3 1.5q7 2 13.5 1t14.5 -3v1q2 -2 4 -4.5t4 -6.5q-1 -12 -10.5 -19.5t-14.5 -17.5q-32 -39 -65 -81.5t-64 -84.5q-23 -33 -46 -64t-45 -65q-2 -12 0.5 -21.5t5.5 -20.5q9 -34 18.5 -70t20.5 -71q11 -34 22 -67.5 t23 -68.5q-1 -3 2 -7t0 -9q-1 -2 -2 -5t-3 -2l-1 -2q-2 0 -4 -1t-5 -1q-16 -1 -30 -0.5t-29 0.5q-8 -1 -15 4.5t-12 13.5q-3 5 -6 13.5t-9 13.5q-1 0 -6 -2q-2 -2 -1 -6t-1 -6q1 -7 2.5 -13t2.5 -12q-1 -3 -1 -5t-2 -4q-3 -1 -7 -0.5t-7 1.5q-4 4 -8 5q-14 23 -22.5 48.5 t-19.5 48.5q-4 11 -7.5 20.5t-8.5 20.5q-3 2 -3.5 5.5t-4.5 2.5q-1 3 -3.5 2.5t-4.5 -1.5q-19 -28 -36.5 -58t-34.5 -58q0 -2 -1.5 -2.5t-1.5 -2.5q-3 -5 -6.5 -9.5t-7.5 -11.5q-2 0 -6 -2.5t-7 -3.5q-7 -4 -16.5 -3t-17.5 -3q-18 -3 -35.5 1.5t-35.5 2.5q-3 2 -7 1t-7 2 l-1 -1q1 1 0 1v0h-1q2 0 -0.5 1.5t-2.5 3.5q-2 12 5 22.5t12 21.5q0 2 1.5 3.5t0.5 3.5q11 18 21.5 35.5t21.5 37.5q20 34 39 66.5t40 66.5q1 2 2.5 4.5t2.5 5.5q6 10 11.5 18.5t10.5 18.5q5 13 2.5 25.5t-7.5 23.5q-5 14 -10.5 31.5t-11.5 31.5q-1 3 -1.5 5t-2.5 4 q-2 7 -1 13.5t0 12.5q-15 48 -30 96.5t-29 97.5v9q0 6 2 11q5 4 12 5.5t13 -1.5q4 1 4 -2q0 -2 1 -4l2 -5v1q0 -2 2 -4t3 -2q-2 -2 0 -3.5t4 -3.5q1 -2 6 -2q5 5 4 11t0 12q-2 2 -0.5 4.5t2.5 4.5q2 -1 4 1.5t4 3.5h2v-1q6 3 12.5 2.5t13.5 0.5q6 -2 13.5 -0.5t14.5 -0.5 l2 1q8 -1 14 -4.5t12 -4.5v-1q1 -2 3.5 -1t4.5 0q10 -2 21 -0.5t19 -9.5q2 -2 2.5 -5.5t2.5 -6.5l-1 -1q6 -32 11 -62t13 -59q2 1 1.5 -1t1.5 -3q2 -3 6 -2t6 3q24 32 47 64t47 64q5 9 14.5 18t20.5 13q12 2 25.5 1.5t24.5 0.5q4 -1 8.5 0t8.5 0v1q9 0 15 -8zM148 687l-2 -3 z" />
<glyph unicode="Y" horiz-adv-x="604" d="M500 698h1q2 -2 6 -2t6 -2q8 -2 16 -0.5t17 -0.5q10 -2 20 -0.5t18 -5.5l1 1v-2l1 1v1h1q4 -16 -5 -26q-14 -14 -27 -32q-14 -19 -29 -37t-29 -38l-70 -96l-71 -106q-17 -26 -33.5 -51.5t-33.5 -52.5q-3 -14 -9 -27v0q0 1 -1 1q-33 -48 -63.5 -100.5t-60.5 -103.5l-6 -9 q-1 0 -2 -1.5t-3 -2.5q-5 -5 -13.5 -5.5t-14.5 0.5l-9 5q-1 2 -2 5t-1 6h-2q1 1 -2 4q-8 2 -12.5 -2t-9.5 -8v-1h1l-3 -2v1q-2 0 -2 -1v0q-3 0 -6 -1.5t-7 -1.5h-2q-5 1 -12 0t-14 -1t-12 3t-7 12q0 14 7 25q75 154 162 300q2 3 2.5 7t0.5 8q-14 8 -19 24t-11 30 q-23 63 -42.5 126.5t-37.5 129.5q-2 4 -0.5 7l2.5 5q1 4 4.5 4.5t7.5 2.5q14 2 24 -2q4 -2 7 -7t5 -8q0 -10 8 -16q4 0 6 1q5 6 2.5 13t-2.5 14q3 -1 4 2.5t3 5.5q8 8 18.5 6t20.5 0q8 0 14.5 0.5t14.5 -0.5v-1q2 -2 5 -1.5t5 -2.5q1 2 1 1t1 -1q7 -3 15 -1.5t14 -3.5 q2 0 2 1t2 0q-2 -5 3.5 -8.5t4.5 -8.5q1 -3 0.5 -6t1.5 -6q5 -32 10.5 -60.5t12.5 -57.5q3 -3 7 -3q1 -2 4 1q23 32 45.5 65t45.5 66q8 10 17 19t23 11q17 -2 33 -1t32 -1zM257 687l2 -1z" />
<glyph unicode="Z" horiz-adv-x="508" d="M404 698q1 2 2 0.5t3 0.5q6 -2 12.5 -5t13.5 -5q11 -1 22 -1h21h1q4 -1 7.5 -2.5t5.5 -6.5q1 -3 2.5 -5t0.5 -6q-1 -9 -5 -18.5t3 -17.5q1 -8 -0.5 -13.5t-3.5 -11.5q-5 -5 -9.5 -7t-9.5 -4q-3 -2 -4.5 -5t-3.5 -5q2 -2 1 -3.5t1 -2.5q0 -2 1.5 -2.5t1.5 -3.5 q5 -1 6.5 -6t3.5 -9q-2 -8 -3.5 -15.5t-9.5 -12.5q-15 -5 -31 -4t-30 -1q-3 1 -3.5 -2t-0.5 -5q1 -6 7.5 -7.5t10.5 -4.5q6 -2 10 -9q2 -11 -2 -16q-57 -75 -106 -150t-97 -153q-2 -11 4 -16q9 -4 18 -3t17 0q33 -1 67 0.5t66 -0.5q4 -1 5.5 -3t3.5 -5q2 -6 -2 -14 q-2 -4 -6 -5t-7.5 -2.5t-5.5 -4t0 -8.5q3 -4 7.5 -5l9 -2t8.5 -3t6 -8v-9h-1q-4 -16 -7 -33t-7 -34q-4 -11 -11 -14q-2 1 -4.5 0t-5.5 -1q-9 0 -17 0.5t-18 -1.5l-2 -2q-9 -2 -17.5 -1.5t-19.5 1.5q-38 -2 -78.5 -0.5t-76.5 -1.5q-23 0 -48.5 -1t-49.5 -2q-8 0 -15.5 -1 t-12.5 3q-3 -3 -3 -1t-2 3q0 4 -1.5 7t-1.5 7q4 23 5 46.5t4 48.5q5 17 13 33.5t16 33.5q5 9 10 19t10 19q11 22 21 41t21 42q0 16 6 30q7 19 17 36.5t18 35.5q2 2 3 5t3 6q11 23 24.5 47t25.5 47q2 5 -0.5 9.5t-5.5 8.5q-2 2 -6 1.5t-7 -0.5q-21 0 -43 -1t-43 -1h-10 q-5 0 -9 3q-5 5 -8.5 11t-0.5 14q-2 2 -0.5 2.5t-0.5 2.5q1 2 1 6h2l3 13q2 -1 2.5 0.5t1.5 2.5q3 3 8 4t9 2t7 3.5t2 8.5q-2 6 -8 6.5t-10 3.5l0.5 -0.5t-1.5 -0.5l-1 1q0 1 -1 2l0.5 -0.5t0.5 0.5q-2 1 -1.5 2t-0.5 3q0 3 -1 7t1 6q2 13 4.5 27.5t7.5 27.5q6 8 16 8 q28 2 54 3l52 2h5q11 0 21.5 0.5t21.5 0.5q2 -1 4 0t4 0q6 0 13.5 -0.5t15.5 1.5l1 -1q17 2 32.5 0.5t32.5 0.5q8 -1 17 0q2 2 3.5 0t2.5 1q2 -2 3 -1t2 -1zM79 562l-1 -2z" />
<glyph unicode="a" horiz-adv-x="457" d="M431 543q-1 6 -5.5 10.5t-9.5 6.5q-5 -2 -9.5 -0.5t-9.5 -0.5l-6 -5q-5 -3 -8.5 0.5t-8.5 3.5q-1 0 -1.5 1t-1.5 0q-7 2 -11.5 0.5t-12.5 0.5q-6 -3 -10 -7.5t-11 -2.5q-3 1 -4.5 3t-4.5 1v1h-9q-2 -2 -3 -2.5t-3 -2.5q-19 -28 -37 -57t-35 -59q-27 -44 -52.5 -89 t-49.5 -90q-21 -37 -38.5 -75t-37.5 -76v1v-1q-7 -17 -15.5 -33.5t-14.5 -32.5h-1q-2 -5 -4 -9.5t-3 -10.5q0 -4 2.5 -6.5t4.5 -5.5q7 -5 15 -2t14 7q6 2 10 -2t9 -5q3 0 7 -0.5t6 2.5q3 3 7 1.5t7 -2.5q5 0 8 -1t6 1q2 -1 1 -1t-1 -1h3l-2 2q2 1 2 0l1 -1q3 3 6 5t6 5 q8 14 15 28l14 28q2 5 5.5 6t6.5 4q17 2 34.5 1.5t34.5 0.5q3 2 7 3t7 4q11 4 21.5 3t22.5 0q3 -2 7.5 -3t5.5 -6q1 -14 1 -31t2 -35l2.5 -5t2.5 -6q3 -4 7 -4q5 0 8 -2q2 2 3 1t3 1q1 -1 0 -1.5t0 -0.5l1 2h4q9 6 19 4t20 -2h3v0q1 0 1 -1q5 0 9 4t6 8q4 4 7 0q0 -5 6 -9 q4 -4 10 -2q3 1 4.5 3t2.5 4q-1 3 1.5 5.5t0.5 5.5q-2 1 0 2.5t0 2.5q1 5 1 11t1 11q2 50 3.5 96t2.5 97q1 2 0 3.5t0 3.5q0 12 0.5 22.5t-0.5 22.5l1 2q-2 18 -1 36t-1 38q0 43 -2.5 86t-4.5 87zM296 290q-1 -3 0.5 -4.5t-0.5 -3.5q2 -2 0 -3q1 -4 1.5 -7t0.5 -8v-2v-4 q2 -5 1 -7.5t1 -8.5l-1 -3q1 1 1 0v-1l-1 -1l1 -1q0 -1 0.5 -4t0.5 -5q-1 -4 0 -10t1.5 -12t-2 -11t-9.5 -6q-12 0 -27.5 0.5t-27.5 0.5q-2 1 -4 1t-2 2q0 8 4.5 14t7.5 12q11 18 22 37l22 38q2 1 6 5q3 0 3.5 -3t0.5 -5zM305 158q0 -6 -4 -7q-5 -1 -11.5 -0.5t-11.5 3.5v2 h-1q-2 2 -1 2t1 1q1 0 1.5 1.5t1.5 0.5q5 1 9 2.5t9 -0.5q2 0 4.5 -1.5t2.5 -3.5z" />
<glyph unicode="b" horiz-adv-x="437" d="M332 546q-36 9 -71.5 12t-74.5 2q-12 2 -25 -3t-25 -3q-1 0 -1.5 -1t-0.5 1q-9 -2 -17.5 -0.5t-16.5 -3.5q-6 -3 -6 -9v-11q-5 -9 -10.5 -19t-5.5 -21h1q-1 -4 1 -12q-2 -4 -2 -6q0 -4 -2 -2v-1q-4 -5 -7 -13q-1 -8 -4 -16t3 -15q2 -6 7.5 -6.5t10.5 -2.5q5 0 8 -2 q1 1 3 0t4 -1q3 -6 0 -13t-4 -13q-2 -8 -8 -6.5t-11 -2.5q-11 -5 -12 -15t-5 -19q-1 -2 -0.5 -4t-1.5 -4q-6 -28 -9 -54q-6 -26 -9.5 -51.5t-8.5 -50.5q-5 -37 -9.5 -71.5t-9.5 -72.5q0 -7 -1 -14t3 -12t10.5 -4.5t10.5 1.5q0 2 1 1l1 -1q0 3 1 2q2 3 4.5 6t4.5 7q2 -1 2 0 t2 0h-1q2 0 2.5 -0.5l0.5 -0.5v1q5 -2 6.5 -6t1.5 -8h1q4 -2 3 -4q4 -2 4 -3v1q3 -2 7 -2q5 0 8 2v-1l2 1h1q4 6 11 4t14 -1q1 1 1.5 0t0.5 1l1 -2q5 2 8 4.5t6 5.5q1 3 1.5 6t2.5 6l-1 -1l1 6q-1 2 0.5 3.5t-0.5 2.5q2 2 1.5 4t0.5 5q2 3 1 6t3 6q2 2 4 1t3 -3q4 -8 4 -18 q2 -6 3 -12.5t5 -11.5q8 -6 17 -7t17 1q2 -2 3.5 -0.5t3.5 -0.5q5 2 11 2q7 0 12 2q47 8 91 37.5t64 78.5q12 26 11.5 57.5t-14.5 57.5q-2 1 -2.5 2.5t-2.5 3.5q0 2 -3 5t-5 6q2 1 1 1.5l-1 0.5l-13 14l-1 2q-4 2 -7 4.5t-6 4.5l3 3v-1q17 12 33.5 26t27.5 32 q17 25 20.5 57.5t-4.5 61.5q-7 16 -17.5 31.5t-23.5 26.5q-3 0 -3 3v-1q-1 1 -3 2t-2 3v-1q-5 2 -9.5 5.5t-10.5 4.5q-3 2 -6.5 3.5t-7.5 3.5zM256 416q9 -4 16.5 -11t8.5 -19v-6h-1q0 -4 -1.5 -9.5t-4.5 -8.5q1 -4 -1.5 -7.5t-4.5 -6.5q-5 -5 -11 -10.5t-13 -10.5 q-2 -1 -2.5 -0.5t-2.5 -1.5v1q-1 -2 -8 -4q-1 0 -1.5 -1t-1.5 -1q-5 -2 -10.5 -1.5t-11.5 -0.5q0 1 -1 0t-3 0q1 3 -1 2.5t-2 1.5q-2 9 1.5 17t5.5 16t3.5 14.5t4.5 13.5v4q1 3 2.5 5.5t1.5 6.5v-1l2 6t2 5q5 5 13 7t16 0h5zM189 412q1 -2 -1 -5t-2 -5t-1 -3.5t0 -3.5 q-4 -1 -4.5 -6.5t-6.5 -1.5q-3 3 0 6q1 2 0.5 3.5t-0.5 2.5q2 5 2.5 10t5.5 7q5 0 7 -4zM238 221q8 -14 6 -31t-10 -31q-6 -7 -11 -13.5t-13 -11.5q-2 -2 -4 -3t-3 -3q-7 -4 -9 -3q0 -2 -2 -2h-1q-1 1 -2 -1t-1 0q-1 1 -1.5 0.5l-0.5 -0.5q-3 -1 -5.5 -2t-6.5 -1v2 q-2 -2 -3 -1.5l-1 0.5l-4 1h-2q0 1 -2 1q-6 0 -6 5q-2 -1 -1.5 0.5t-0.5 2.5q4 21 8.5 42t8.5 43q2 3 3 7.5t3 6.5q0 1 1.5 3t3.5 2v1l1 -1q2 3 7 2.5t8 1.5q11 0 22.5 -3.5t17.5 -13.5z" />
<glyph unicode="c" horiz-adv-x="395" d="M354 555q7 -1 15 -1.5t12 -8.5l1 -3q-2 -8 -3 -15t-3 -15q-2 -4 -4.5 -8t-4.5 -9q0 -3 -2.5 -5.5t-0.5 -6.5q-1 -5 -3 -13q-2 -2 -2 -5q2 -3 2 -8q0 -4 1 -9q-2 -6 -2 -13q0 -6 -6 -11q-5 -6 -12.5 -5.5t-14.5 -1.5q-11 -1 -21.5 -5.5t-19.5 -9.5q-23 -14 -41.5 -31 t-33.5 -37q-4 -6 -9.5 -9.5t-10.5 -9.5l-1 -1q-11 -13 -19.5 -28t-12.5 -31q-3 -3 -3.5 -7.5t-2.5 -9.5q-2 -14 -2.5 -29t4.5 -28q0 -5 2 -8.5t2 -6.5q9 -14 23.5 -26.5t32.5 -17.5q8 -2 16 -3t16 0q9 -1 17.5 1t18.5 -1q4 -4 4 -11q0 -2 -1 -3.5t-1 -4.5l2 2q-2 -4 -2.5 -8 t2.5 -7q0 -1 0.5 -2t-0.5 -3h1q1 0 1 1q-1 -2 -0.5 -2.5t-0.5 -2.5q1 0 1 -2q-1 1 -2 1v-4v1q-3 -4 -3 -9t-5 -7q-5 -5 -11 -4.5t-8 -7.5v2l-1 -2q1 -1 0.5 -2t1.5 -3q2 -1 3.5 -3t3.5 -2q-1 -1 1 -6q2 -3 1 -6t0 -6q-3 -8 -9.5 -12t-13.5 -4q-6 -1 -12 -0.5t-12 -1.5 q-47 -2 -90.5 14t-73.5 54q-5 11 -12.5 19.5t-11.5 19.5l-6 18t-4 17q-5 17 -6.5 33t-1.5 32q0 7 1 10q0 13 2 24t4 24t5.5 24.5t8.5 22.5q12 39 34 71q-1 1 2 4l21 34q12 15 26 30t25 27q6 4 9 8q6 6 14 11.5t15 11.5h-1q7 2 13 8h1l4 2t3 3h1q26 15 55.5 25t60.5 12 q1 1 3 0q8 2 15.5 0t15.5 -4zM359 463l1 -1z" />
<glyph unicode="d" horiz-adv-x="475" d="M223 559q3 -1 6.5 -0.5t5.5 -0.5h22q4 -1 6.5 -0.5t6.5 -0.5v-1v2l1 -2q2 2 3 1t3 -1v-1l1 1l1 -1q2 2 5 1l6 -2q16 -2 33 -6t33 -12q21 -10 37.5 -27t28.5 -37q6 -11 12 -22.5t11 -23.5q0 -5 2.5 -9.5t2.5 -10.5q1 -2 0.5 -4t0.5 -4q8 -31 6.5 -64.5t-9.5 -64.5 q-8 -32 -21.5 -60t-28.5 -54q-3 -5 -5.5 -8t-4.5 -8q-8 -10 -14 -20q-28 -40 -69.5 -68.5t-87.5 -40.5v-1l-2 1q-9 -4 -19 0t-19 0h-9t-7 2q-5 5 -6.5 11t-2.5 13q-2 0 -2 1t1 1q-1 4 -2.5 8t-6.5 4q-4 0 -5 -3q2 -1 0 -1t-1 -1q-2 -6 -2.5 -13.5t-3.5 -13.5l-1 -1 q-2 -7 -6 -8q0 -2 1 -2q-1 -1 -2 0l-1 -1h-1l-1 -1h2l-2 -1v2q-9 -5 -19 -3t-21 -3q-7 1 -14 1t-11 8q-7 2 -11.5 -2t-11.5 -2q-4 0 -7 2.5t-6 4.5q-3 7 0 15q-1 7 -0.5 13.5t1.5 13.5q1 5 1.5 9.5t1.5 8.5q0 11 2 22t2 21q3 20 5.5 40.5t6.5 38.5q0 8 2 17t3 18 q3 19 5.5 37.5t7.5 36.5q2 11 3.5 23.5t5.5 23.5q2 15 5 29t8 28q3 11 13 11q2 -2 3.5 -1.5t3.5 -0.5l5 -6q-1 0 0 -1l1 -1q2 -4 1.5 -7.5t3.5 -6.5q7 2 8 8t3 11q2 2 0.5 4.5t-2.5 4.5q-2 1 -4 0.5t-4 0.5q0 -3 -5 0l-1 -1q-1 0 -1.5 0.5t-2.5 0.5l-2 -1l-1 1q-2 -2 -6 0 q-7 2 -17.5 0t-15.5 7q-2 6 0 12q3 6 9 7.5t11 3.5q3 3 1 9q0 3 -3.5 3.5t-5.5 2.5q-1 -1 -3 1q2 1 0.5 1.5t-1.5 2.5q-3 11 2 20.5t2 20.5v5q1 1 0.5 3t1.5 4q2 9 5 16.5t11 12.5q13 6 23.5 4.5t24.5 -0.5q7 1 14 0.5t14 0.5q16 -2 30 -1.5t29 0.5zM245 422h-1q-11 1 -18 0 q-4 1 -7 -2t-5 -6l-12 -37q0 -2 -0.5 -5t0.5 -5q-2 -7 0 -14t0 -15q-1 -2 -0.5 -4t-1.5 -4q-5 -15 -8.5 -29t-5.5 -29q-9 -35 -17 -69t-15 -69v-1q-2 -2 -1.5 -4t-0.5 -4q0 -5 4 -5q20 0 40 9t36 22q40 29 58 75q1 0 0.5 1.5t1.5 1.5q6 17 10 33t6 33l1 7q1 8 1 19v19 q-2 2 -1 3.5t-1 2.5q2 2 0.5 3t-0.5 2q-1 2 -1 3q0 2 -1 4l1 1q-1 1 -1 2q0 5 -3 11l-5 10q-2 3 -3 6t-3 5q-2 1 -2.5 3t-2.5 1h-1v2q-1 3 -7 7q-7 7 -15.5 10.5t-18.5 5.5z" />
<glyph unicode="e" horiz-adv-x="397" d="M363 559l1 1q13 -2 17 -12q1 -2 0.5 -3.5t0.5 -3.5l-1 1l-1 -2l-3 -30h1q0 -6 -3 -10.5t-5 -9.5q-10 -13 -24 -16q0 -3 -2 -3.5t-1 -2.5q0 -2 4 -6q2 0 5 -1.5t5 -3.5q1 0 2 -2.5t3 -4.5q1 -8 -1 -15.5t-4 -15.5q-2 -1 -3 -2.5t-4 -1.5q-5 -1 -9 -1.5t-9 1.5 q-29 1 -56 1.5t-54 1.5q-7 -1 -14 -0.5t-12 -5.5q-1 -3 -2.5 -4.5t-0.5 -4.5h1q-3 -2 -2.5 -5.5t-0.5 -6.5q-2 -1 -1 -2t2 -3q1 -1 5 -1q3 3 5.5 7t4.5 7.5t5.5 5.5t9.5 1l1 -2v2q5 -2 6.5 -5l3.5 -7q-2 -11 -4 -15q-1 -4 -3 -7.5t-2 -8.5q-2 -7 -4.5 -14t-4.5 -15v-6 q0 -10 5 -12h14t13 1q4 -2 9 -2q6 0 10 1q8 -1 16 -1h17q4 0 8 -4q1 -2 2 -4.5t0 -4.5q1 0 -0.5 -2t-1.5 -3q1 -2 -1 -3t-2 -3q-6 -2 -6 -11q0 -2 3 -3v1v-2q1 1 1 -1q4 -9 1 -20q-2 -16 -11 -25q-5 -3 -13 -3q-7 0 -12 -3q-8 -2 -14 -8t-15 -4q-12 1 -23.5 0.5t-22.5 -0.5 q-8 1 -15 -6q-5 -14 -8 -27t-7 -27q-1 -6 -3 -11.5t1 -11.5q2 -2 6 -2.5t7 -0.5q2 -1 3.5 -0.5t3.5 0.5q10 -2 21.5 -1t22.5 0q3 1 6.5 0.5t7.5 0.5q13 -1 26 -0.5t26 -1.5v-2h1q2 -2 3.5 -4.5t3.5 -4.5q-2 -11 -4.5 -21.5t-4.5 -21.5q-2 -5 -5.5 -7.5t-2.5 -9.5q1 -5 3 -9 t2 -9h-2q-3 -7 -3.5 -13.5t-6.5 -12.5q-3 -2 -4 -4.5t-5 -2.5q-4 -1 -7.5 -0.5t-8.5 -1.5q-14 1 -25.5 1.5t-25.5 0.5q-15 3 -31 0.5t-28 9.5q-5 2 -6 0q-5 -5 -11.5 -6t-13.5 -2l-1 1q-19 -2 -36 -1t-37 0q-11 2 -16 10h-1q1 2 -1 7q-1 7 1 15t1 14q4 14 5 31t4 31 q2 14 4 28.5t4 28.5q2 13 4.5 26t4.5 26q2 4 1.5 9t1.5 9q5 27 11 56t12 55q1 8 7.5 11t11.5 9q4 8 5 16t3 16q1 3 2 6.5t-3 6.5q-6 3 -13.5 2t-14.5 1q0 1 -1 1v1q-1 -2 -1.5 -0.5t-2.5 0.5q1 2 0 2h-1v-1q-2 1 -1 1.5t0 2.5h-1q-2 4 0 7.5t1 8.5q1 3 1.5 6.5t1.5 6.5h1 q0 1 0.5 1.5l0.5 0.5v2q2 3 7 4t7 5q0 2 1 3t0 3q-4 2 -9.5 5.5t-5.5 8.5q0 12 3 24.5t5 24.5q12 12 28.5 10.5t30.5 1.5q9 1 17 6.5t17 3.5h11h2h8h22t22 1q31 0 64.5 0.5t66.5 -0.5z" />
<glyph unicode="f" horiz-adv-x="409" d="M284 559l-1 1q-27 -1 -57 -1q-29 0 -58 -1h-7q-14 -1 -30 -2t-33 -1q-5 -1 -10 -1.5t-8 -3.5q-5 -7 -7.5 -14.5t-0.5 -15.5q2 -2 -0.5 -3t0.5 -3v1l3 -5q1 -2 -2 -7q-3 -3 -7 -3q-3 -3 -6 -5q-3 -4 -3.5 -8.5t-1.5 -8.5q2 -8 0.5 -16t-3 -15.5t-1.5 -14.5t5 -14h2v-1 q8 0 14.5 0.5t13.5 0.5h1q7 -2 15 0.5t14 -4.5q0 -2 1 -5.5t-1 -6.5q0 -4 -1.5 -8.5t-2.5 -9.5q-1 -2 -3 -3.5t-4 0.5q-2 0 -2 2t-1 3q2 6 1.5 13t-6.5 11q-2 2 -6 2t-7 -1q-5 -1 -7 -5l-4 -8q-8 -32 -13.5 -65.5t-12.5 -65.5q-5 -31 -11 -60.5t-9 -60.5q-2 -11 -4 -24 t-3 -27q-4 -8 -2 -18t2 -18q-2 -11 -3 -22t-3 -23q-1 -5 3 -11q3 0 4.5 -1.5t4.5 0.5h6q5 3 6.5 7.5t3.5 9.5q2 3 8 3q5 -2 5 -6t1 -8v-1q0 -1 1 -1t-1 -1q3 -2 6 -2t5 -2q11 0 23 -1t23 1q7 1 10.5 7t4.5 11q0 3 1 3q5 23 10.5 49.5t10.5 50.5q2 9 4 19t6 19q2 12 5 25.5 t7 24.5q5 5 10.5 3.5t11.5 0.5h4q16 -1 31.5 0.5t30.5 -0.5q8 1 14.5 3.5t8.5 11.5q-2 1 -0.5 3t1.5 4q0 5 4 11q8 2 11 9t5 12v1q0 5 2 10.5t2 10.5q0 1 2 1q0 7 -1 10q-1 5 -4 7t-7.5 3t-9 1.5t-7.5 2.5q-5 8 -18 8q-3 2 -6 0.5t-7 -0.5q-2 1 -2.5 0t-1.5 1l-2 -1 q0 1 -2 0.5t-2 0.5v-1q-2 0 -4 0.5t-4 -0.5q-6 1 -10.5 0.5t-10.5 0.5l-1 2q-5 0 -4 4.5t-1 7.5q5 15 8.5 28.5t8.5 28.5q2 2 1.5 4t1.5 1h-1v1q0 4 2 7t2 7q3 4 9 6q19 1 38 0.5t39 0.5q4 -2 7.5 -0.5t8.5 -0.5q10 2 20 0.5t18 7.5q7 13 0 27q-2 3 -1 5.5t3 4.5q2 0 3 1 q3 -1 6 2.5t5 5.5q4 15 6 29t6 28q-1 5 -1.5 8.5t-3.5 5.5l-8 4t-8 0q-8 2 -14.5 1.5t-13.5 -0.5q-10 2 -19.5 4.5t-19.5 4.5q-7 -1 -13 0t-11 -1zM191 415q2 -5 -0.5 -9.5t-4.5 -9.5l-2 -4q-7 -2 -8 4v6h1q0 3 1 7.5t3 6.5q1 2 4 2q4 1 6 -3zM60 3v2v-1v-1z" />
<glyph unicode="g" horiz-adv-x="439" d="M347 557q7 -2 13 -2t12 -4q6 -7 4 -14q-3 -5 -7 -5.5l-8 -1t-7.5 -2t-6.5 -6.5q2 -2 2.5 -4.5t3.5 -3.5q5 -2 9 -5t5 -8q-1 -8 -2 -16.5t-4 -16.5q-4 -9 -5.5 -19.5t-12.5 -15.5q-7 -2 -9 -7.5t-9 -7.5q-14 -2 -28.5 -4.5t-27.5 -7.5q-17 -6 -31.5 -17t-25.5 -23 q-26 -27 -43.5 -62t-26.5 -71q-2 -6 -3.5 -14t-2.5 -14q-1 -13 -0.5 -25.5t5.5 -25.5q5 -15 16.5 -27.5t28.5 -12.5q19 0 33.5 9.5t24.5 24t17 31t13 31.5q0 6 -6 8q-9 2 -17.5 1.5t-19.5 0.5q-5 2 -9 5t-4 9q0 8 2.5 14.5t3.5 13.5q5 7 11.5 10.5t13.5 7.5q2 4 1 6h1h-1 q0 4 -4 6t-6 6q-3 5 0 12q11 12 27 10.5t31 1.5h111q3 -2 6 -3.5t5 -4.5q2 -4 2 -11q-5 -13 -6.5 -26.5t-9.5 -25.5q-2 -7 -2 -17q0 -9 -8 -14q-4 -4 -9 -4q-4 0 -8.5 0.5t-8.5 0t-7 -6.5q-2 -5 -4.5 -9t-3.5 -9q0 -5 4 -5q8 1 12 11q0 2 1.5 4t2.5 4q3 0 2 1q5 3 9 2 q3 -1 3.5 -3.5t2.5 -4.5q-2 -9 -5 -17.5t-6 -16.5q-15 -36 -37 -66.5t-52 -54.5q-11 -9 -24 -17.5t-27 -13.5q-6 -2 -12.5 -4t-12.5 -5q-8 0 -15.5 -2t-14.5 -3q0 1 -1 0t-2 1v-2l-1 1q-42 -3 -78 18.5t-57 55.5q-13 26 -21.5 53.5t-7.5 59.5q1 5 0.5 10.5t0.5 11.5 q0 7 2 14t1 14q1 2 0.5 5.5t-0.5 5.5l-6 14q2 23 9 42.5t15 40.5q8 19 18.5 38t22.5 36q5 10 11.5 17.5t12.5 15.5q1 1 2 2.5t3 3.5q20 23 43.5 42t51.5 32q1 0 1.5 1t2.5 1l17 7v3q0 -1 0.5 -1.5l0.5 -0.5q19 8 39.5 11.5t42.5 5.5q10 -2 19 -1.5t19 -1.5z" />
<glyph unicode="h" horiz-adv-x="510" d="M244 554q0 -8 -3 -16t-5 -16q-4 -12 -6.5 -24t2.5 -24q2 -9 -1 -17t-5 -16q-5 -13 -8 -27.5t-8 -27.5q-2 -7 -3.5 -13.5t-3.5 -14.5l-9 -35q0 -3 2 -7l7 -4q20 1 41 0t39 1q4 1 7 4l6 6q11 54 23.5 108.5t27.5 106.5q1 6 8 10l-2 1q2 -2 2.5 -0.5t1.5 1.5h1q0 1 2 0 q11 3 21.5 2t21.5 0q9 6 20 6q2 -1 5 -0.5t5 0.5q6 -8 7 -10q0 -4 -2 -7.5t-1 -5.5q-2 -5 0 -8q1 -1 3 -2.5t4 0.5q2 1 2.5 3.5t2.5 4.5q5 5 7 12.5t10 9.5l1 1q7 -1 13.5 0.5t11.5 -3.5q2 -1 2 -3t2 -3t0 -1.5t0 -2.5q0 -3 -1.5 -6t-1.5 -6l-1 -1q-13 -44 -26 -89t-24 -89 q-2 -8 -7 -13.5t-4 -13.5q-5 -17 -9 -35.5t-9 -35.5l-19 -92l1 -1q-8 -33 -13 -66.5t-12 -66.5q2 -2 0 -3t-1 -3q0 -2 -1 -4t0 -4q-1 -2 -1 -5t-3 -5q-1 -3 -5 -3q-3 0 -6 -1l-0.5 1t-1.5 0h1q-2 1 -4 6q-3 4 -8 2q-3 -5 -9 -6t-10 -1q-3 0 -6.5 -0.5t-6.5 0.5q-7 0 -13.5 3 t-12.5 -3q-8 -2 -17.5 -1.5t-14.5 7.5q-2 2 -3.5 5.5t0.5 7.5q4 35 9.5 71t10.5 71q2 8 3 19t3 20q-2 7 -8 9q-1 -1 -2 0t-2 -1q0 1 -2 1q-1 -1 -1.5 0t-1.5 0q-14 2 -29 1t-29 1q-8 2 -10 9q1 8 7.5 10.5t11.5 4.5q0 2 1 3t-1 3t-5.5 1.5t-6.5 1.5q-2 0 -5.5 -0.5 t-5.5 -3.5l-1 1q-5 -2 -8 -6q-7 -19 -10 -38.5t-8 -38.5q-6 -35 -12.5 -67.5t-11.5 -67.5q-2 -13 -11 -18q-6 -2 -12 -2q-5 0 -10 5q-4 3 -3.5 8t-3.5 7l-3 2q-5 0 -8 -5q-3 -6 -8 -12.5t-14 -6.5q-9 1 -18 1q-8 0 -18 1q-6 0 -8 7q-3 10 -1 19.5t3 20.5q4 22 7.5 44t6.5 45 q-2 17 -2 33q0 17 5 34q9 71 21.5 141.5t27.5 140.5q4 16 5.5 33.5t15.5 27.5q9 4 19 1l3.5 -3.5t0.5 -4.5q0 -7 -1.5 -11.5t-2.5 -10.5q2 0 2 -2q0 -1 2 -1q0 1 1 0q6 1 9 8q5 8 8 18t14 14q7 2 10.5 -3.5t9.5 -5.5t11 4.5t11 4.5q8 2 15.5 0.5t14.5 0.5q7 0 12 -6z" />
<glyph unicode="i" horiz-adv-x="260" d="M236 559q9 -2 10 -10q2 -3 1 -7.5t-3 -7.5q-6 -22 -11.5 -43.5t-10.5 -44.5q-2 -6 -0.5 -10t3.5 -10l1 -8q0 -2 -1 -4.5t0 -4.5l-1 2q-3 -13 -7.5 -27t-6.5 -28l-1 -1q-22 -82 -38.5 -166t-30.5 -171q-2 -3 -6 -7t-9 -5q-6 -2 -12.5 -1t-12.5 1q-13 -8 -30 -5q-7 2 -10 8 t-1.5 14t-5.5 10q-8 -3 -9.5 -11.5t-9.5 -13.5q-2 -2 -6.5 -3.5t-7.5 0.5q-2 0 -3.5 2t-3.5 4q-2 9 0.5 18.5t2.5 17.5q3 26 6.5 52t5.5 52q0 2 -1 4.5t1 4.5q-1 14 1.5 28.5t3.5 29.5q2 22 6 46.5t7 45.5q5 19 7 37.5t7 38.5q2 18 5.5 37t7.5 38l-1 1h1t1 2q2 5 2.5 11 t3.5 11q2 15 5 28.5t6 27.5q1 6 7 10t11 6q1 -2 3 0q7 -3 13.5 -1.5t12.5 -3.5q4 -5 6 -7v1q0 -2 1 -1.5t3 -1.5q1 2 2.5 1.5t1.5 1.5v-1q3 0 5 2.5t6 3.5q6 0 9 -2q2 -2 2 -4t2 -4q-4 -6 -1 -11q2 -5 6 -1l3.5 3.5t1.5 4.5q5 6 6.5 13t9.5 8q8 2 15 1t15 -1h4z" />
<glyph unicode="j" horiz-adv-x="349" d="M281 556q4 -4 4.5 -8.5t2.5 -9.5l-1 -4q0 -4 3 -5q5 -2 6.5 2t3.5 6q3 7 9 12t14 5q8 2 11 -6q0 -2 1 -2q-1 -4 -0.5 -7.5t-1.5 -6.5q-9 -35 -16 -68l-14 -66l-7 -21q-4 -8 -5.5 -18t-4.5 -19q-10 -43 -18 -86t-16 -88q-2 -5 -1.5 -10t-1.5 -10q2 -2 1 -5.5t0 -6.5 q0 -13 -3 -28q-2 -4 -2.5 -7.5t-2.5 -8.5l-1 1q-14 -25 -36.5 -44t-48.5 -29q-8 -5 -17 -7t-17 -6q-2 1 -4 0t-4 -1q-16 -3 -33.5 -3.5t-33.5 1.5q-5 0 -9.5 0.5t-9.5 0.5v-1q0 2 -1.5 1t-2.5 0q-6 4 -9 11q-2 11 0 22t3 22q2 1 2.5 3t2.5 3q2 0 3.5 3t4.5 1q3 1 7.5 0.5 t6.5 2.5q4 6 0 9q-3 5 -8 2q-1 -1 -1 0q0 2 -1 1q-5 0 -8.5 4t-5.5 6q-1 6 2 11q6 9 16 6q6 -3 12.5 -2.5t12.5 1.5q4 2 8.5 2.5t7.5 4.5q2 -2 2 0t1 1h1l-2 1q5 0 7.5 3t6.5 7v1q7 8 11.5 17t3.5 20q2 8 2 17t2 17q9 85 21.5 169t30.5 169q1 4 5 8q8 8 17.5 6.5t18.5 0.5 h27q10 4 20 6t21 -1z" />
<glyph unicode="k" horiz-adv-x="467" d="M377 550l1 -11q-2 -4 -2.5 -8t-1.5 -6q4 -4 8 -3q3 3 5.5 6t6.5 6q4 2 9 2q6 0 11 -4q2 -2 5 -3.5t5 -4.5q5 -5 7 -9t7 -8q3 -3 7.5 -6t4.5 -8q2 -2 2 -7q-2 -2 -3.5 -4t-3.5 -4q-36 -42 -69 -82.5t-66 -85.5l-4 -6t-2 -8q2 -8 5 -14.5t6 -14.5q5 -10 9.5 -21t9.5 -22 q5 -9 12.5 -17.5t10.5 -19.5q8 -17 14.5 -35t14.5 -36q2 -2 2 -4q0 -1 1 -3q5 -13 9.5 -24t9.5 -25q0 -4 0.5 -7.5t-2.5 -6.5q-7 -8 -18.5 -12t-19.5 -9q-11 -4 -17 1q-3 1 -5 4.5t-3.5 6.5t-4 5t-6.5 1q-2 -2 -2 -6v-1q0 -5 -1 -11.5t-6 -9.5q-1 -2 -4.5 -2.5t-5.5 -2.5 q-5 -2 -8.5 -3.5t-7.5 -4.5q-5 -1 -9 -2t-8 3q-5 2 -6 5.5t-4 7.5q-18 56 -39 111.5t-44 109.5q-4 6 -9 6q-8 -2 -9 -6q0 -5 -2 -7q-2 -8 -3 -17t-3 -17q-6 -32 -11.5 -63.5t-10.5 -62.5q1 -3 0 -4t-1 -6v-1q-4 -12 -3 -23.5t-7 -21.5v-1q-3 -5 -9.5 -6t-11.5 0 q-7 2 -8.5 9.5t-1.5 12.5q-3 3 -5 2q-7 -5 -8.5 -13t-9.5 -10q-11 -3 -24 -1q-8 0 -16 0.5t-13 5.5q-3 0 -4 3t-3 5q0 5 1 11t0 14q2 4 2 9q1 8 2 16.5t1 16.5q2 10 2 18q0 9 2 18q-2 9 2 18q-1 6 0 10.5t1 11.5q1 4 1.5 6.5t0.5 6.5q3 20 4.5 37.5t4.5 36.5q0 4 1.5 6.5 t0.5 6.5q2 11 4 24t3 25q2 1 1 1t0 2q2 12 4 25t4 24q-2 22 3.5 42t7.5 42q3 15 6 30.5t7 30.5q2 13 5.5 26.5t17.5 18.5q5 1 10.5 -0.5t9.5 -7.5q2 -5 0 -12.5t0 -15.5q1 -2 6 -2q5 5 5.5 12t3.5 12q8 9 17 8.5t19 0.5h12q3 2 5.5 2.5t3.5 2.5q8 2 16.5 2.5t16.5 -2.5 q2 -1 3 -3.5t3 -5.5q1 -5 0 -8.5t-3 -8.5t-2 -12q0 -6 3 -11q-1 -2 0.5 -3.5t-0.5 -3.5q1 -3 0.5 -5.5t-0.5 -5.5h-1q-7 -23 -13 -46t-12 -45q0 -5 -2 -8.5t0 -7.5q2 -2 4 -2.5t4 -1.5q8 5 12.5 14t11.5 15q23 29 45 60t46 60q5 8 10.5 14.5t11.5 13.5l4.5 4.5t6.5 0.5 q5 -1 10 -2.5t7 -6.5z" />
<glyph unicode="l" horiz-adv-x="332" d="M170 557q2 1 2.5 -1.5t3.5 -2.5q3 -3 1.5 -8.5t-0.5 -8.5l-1 2q0 -3 -1 -7t1 -6q-2 -2 3 -7q5 2 8 6.5t5 9.5q3 7 7 13.5t13 6.5q5 -2 10.5 -1t11.5 -2l-1 1q6 -2 6 -7l-1 1q2 -6 0 -13t-3 -14q1 -2 1 -7q1 0 1 1v1q-1 -8 1 -16t0 -16q-5 -9 -7 -19.5t-5 -21.5 q-18 -73 -34.5 -148t-27.5 -147q0 -4 -1.5 -9.5t2.5 -10.5q2 0 2.5 -2t2.5 0q4 -2 8 -1t9 -1q1 2 2 1t3 -1q3 2 5.5 1t4.5 -1q6 0 13 0.5t14 -0.5q2 2 3.5 1t3.5 -1q20 -1 37.5 -0.5t37.5 -1.5q9 -5 5.5 -14.5t-3.5 -15.5q0 -8 -6 -14t-5 -14q2 -1 1.5 -2.5t0.5 -2.5 q6 -5 5 -11l-2 -12q-4 -9 -4.5 -20.5t-14.5 -13.5q-5 2 -8 0.5t-8 0.5q-25 1 -50.5 1.5t-49.5 -0.5q-8 0 -15 2.5t-13 5.5q-6 -1 -11 -5t-13 -3q-11 0 -24 0.5t-24 -0.5l-12 4t-7 9q-1 2 -1 4q0 3 -3 4t-5 -2.5t-4 -5.5q-2 -3 -4 -5.5t-4 -5.5q-2 0 -2.5 -1.5t-2.5 -1.5 q-4 0 -6 1.5t-5 3.5q-3 9 -1.5 19t2.5 19q5 36 11 74t12 73q-1 4 -1 8t-2 7l1 2q-2 11 -1 22t3 21q4 26 7.5 50.5t8.5 50.5q5 29 10 57.5t11 57.5q0 5 1.5 11t2.5 12q2 14 4.5 26.5t7.5 25.5q4 3 8.5 5.5t9.5 3.5q8 -1 17 0.5t16 6.5q5 2 9.5 1.5t9.5 0.5q2 -2 4 -1.5 t3 -1.5zM236 550l2 -4z" />
<glyph unicode="m" horiz-adv-x="665" d="M322 553q3 -1 3.5 -4t2.5 -4q0 -2 1 -2.5t-1 -1.5q1 -2 0.5 -3t1.5 -2q3 -20 8 -41.5t9 -44.5h1l-1 -1q1 -1 1.5 -2.5t1.5 -3.5q3 -12 4 -23t2 -25q-2 -9 -2 -19q0 -9 4 -18q0 -1 -1 -2.5t1 -1.5q-1 -6 1.5 -12t1.5 -11q2 -4 2 -9t5 -8q9 -3 12 5q11 20 19 39.5t19 39.5 q6 16 14 30.5t15 30.5v2q1 0 3 2q4 7 6 12.5t6 12.5q3 5 5.5 11t5.5 11q4 5 8.5 8.5t8.5 6.5q5 7 9 14.5t9 13.5q5 4 11 5t11 0q2 1 5 0t3 0q3 -1 5.5 -0.5t5.5 0.5q7 -1 13.5 -4.5t9.5 -11.5q4 -8 3.5 -15.5t2.5 -15.5q0 -5 4 -5q6 2 5.5 7t0.5 9q1 7 0 14.5t6 12.5 q2 0 3 -0.5t3 0.5q-2 2 -2 1q2 0 2 -1t2 -1q6 -8 6.5 -16t2.5 -18q9 -50 14.5 -94.5t11.5 -92.5v-1q-1 -2 0 -4.5t1 -4.5q0 -26 3.5 -52t0.5 -52v-13t1 -13q2 -38 4 -77t3 -80q1 -5 -1 -11q-2 -9 -9 -13q-4 -2 -11 0q-5 2 -6.5 7.5t-6.5 9.5q-2 -1 -3 0t-3 0q0 1 -1 0l-1 -1 q-2 -3 -3.5 -6.5t-2.5 -8.5q-2 -1 -2 -3q0 -1 -2 -1q-1 -1 -4 -1q0 -2 -2 -1t-3 -1v1q-8 -2 -18.5 0t-18.5 3h-11t-11 2q-10 8 -10 20q0 13 -2 24q-2 13 -3.5 27t-3.5 28q-2 13 -3 23.5t-3 22.5q-2 2 -1 3t0 3q-4 19 -7 40.5t-8 41.5q-2 0 -2 1q0 2 -1 2q-3 4 -9 4 q-8 -9 -11 -18t-8 -18q-12 -29 -23.5 -56.5t-22.5 -55.5q-2 -5 -4 -9t-3 -9h-1q0 -2 -2 -4.5t-4 -4.5l-1 -2q-5 -5 -9 -9.5t-5 -10.5q-2 -2 -2 -5t-2 -6q-2 -6 -6 -12.5t-12 -7.5q-15 -2 -29.5 -1t-29.5 1q-5 2 -10 5t-6 9q-8 35 -15.5 71t-15.5 71l-4 7l-2.5 5t-2.5 6 q-3 8 -4.5 16.5t-3.5 16.5q-2 5 -3.5 11t-3.5 11q-2 2 -3 3.5t-4 -0.5q-5 -2 -6.5 -8t-4.5 -11l1 -1h-1l-14 -34l-14 -34q-2 -3 -4 -8.5t-3 -9.5v-2q-6 -15 -12 -30.5t-11 -29.5q-1 -7 -5 -16q-5 -11 -8.5 -22.5t-7.5 -22.5q-4 -7 -16 -10q-11 0 -16 1l-1 -1q-7 0 -15.5 1.5 t-11.5 9.5q-1 3 -1 8q0 6 -5 9q-1 0 -6 -2v1q-3 -2 -4.5 -5.5t-3.5 -7.5q1 -1 -2 -4q-1 -2 -3.5 -3.5t-2.5 -3.5q-2 -2 -3.5 -1t-3.5 -1q-5 0 -11 -0.5t-9 3.5q-3 3 -2 3q-2 4 -1 7.5t2 8.5q2 7 4.5 13.5t3.5 14.5q2 1 1 2.5t1 3.5q8 25 15.5 49t15.5 49q5 14 9.5 27.5 l9.5 28.5v1t1 2q6 16 13.5 35t13.5 36q18 48 38 94.5t40 92.5q5 12 10.5 23.5t11.5 23.5q1 5 7 13q7 8 17.5 10.5t19.5 0.5q3 0 5.5 -2t3.5 -3h1q1 -3 3 -5.5t3 -5.5q3 -3 6 -1q4 3 4.5 7t1.5 9q0 1 2 1.5t1 2.5q1 -1 1 -2t0 1q6 5 14 4t15 -2q5 0 7 -1.5t4 -3.5zM401 76v-1 v1zM45 14l1 1v-1h-1z" />
<glyph unicode="n" horiz-adv-x="554" d="M508 552q2 -3 0.5 -6.5t2.5 -5.5q4 1 6.5 4.5l5 7t6 5t8.5 -1.5q4 -3 2.5 -6.5t-1.5 -8.5q-5 -9 -7 -19.5t-5 -21.5q-8 -30 -15.5 -59.5t-13.5 -60.5l-20 -90q-12 -59 -22 -116.5t-18 -116.5q1 0 1 1v1q-2 -6 0 -12q-2 0 -2 -2v-4l1 -1q-2 0 0 -2q-1 0 -1 -1 q-2 -5 -2.5 -11.5t-2.5 -13.5q-1 -2 -2 -3t-2 -3q-4 -5 -12.5 -4.5t-14.5 1.5l-6 3v-2q-2 2 -3 4.5t-5 3.5q-5 2 -7 -2t-5 -6q-6 -4 -12.5 -2.5t-12.5 0.5q-2 1 -4.5 1.5t-4.5 2.5q0 -1 -2 1q-1 4 -4 8.5t-5 9.5q-12 24 -24.5 48t-24.5 48q-11 7 -16 18t-10 20h-1 q-10 21 -22 42.5t-23 43.5q-4 5 -6 9t-7 9q-6 2 -9 -1q-5 -6 -7 -16q-12 -55 -23 -111t-19 -111l1 -1q-2 -5 -4 -8t-6 -6l1 -1q-5 -3 -9.5 -2t-9.5 0q-5 1 -9 5h-1q-1 1 -1.5 3t-2.5 4l1 17q-1 1 -2 2.5t-3 1.5t-4 -1t-2 -3q2 -3 -0.5 -4.5t-0.5 -3.5q-2 -3 -3.5 -8t-1.5 -7 q-2 -4 -7 -7.5t-10 -2.5q-6 -1 -13.5 0t-14.5 1q-8 0 -15 7q-5 8 -3.5 19t1.5 20q2 20 4 38.5t4 36.5q1 5 1.5 10.5t0.5 10.5l1 2q1 12 3 25l4 26q0 3 1 6t1 7q9 60 19.5 119.5t24.5 119.5q0 2 1 5t1 5q2 1 4 6q9 8 10 20.5t5 24.5l4 16l4 16q0 5 4 8.5t8 5.5q11 2 22.5 0.5 t22.5 0.5q13 -7 13 -19l2 -4q6 -2 7.5 3t4.5 8q1 5 7 9q10 4 17 -1.5t12 -12.5q13 -25 26 -48.5t25 -48.5q-1 -2 0.5 -2.5t2.5 -2.5q14 -32 29 -63t29 -62l3.5 -3.5t4.5 -0.5q8 1 6.5 7.5t0.5 11.5q8 50 15.5 104.5t18.5 105.5q1 3 2 6.5t3 5.5q3 9 12.5 8t16.5 1q5 0 10 -3 q3 -3 3 -7t-1 -7q-3 -5 -2.5 -12.5t-1.5 -13.5t3 -8q1 -2 2.5 -1.5t2.5 2.5q6 9 9 19.5t7 20.5v-1l1 3q2 -1 2 1t1 2q7 6 20 6q6 -1 14.5 -0.5t11.5 -7.5z" />
<glyph unicode="o" horiz-adv-x="504" d="M326 559q-13 2 -28.5 0.5t-30.5 -4.5q-8 -2 -16 -4.5t-13 -8.5q-6 -8 -2 -19q3 -6 -4 -9q-2 -1 -4 -0.5t-4 0.5q-5 5 -9.5 8.5t-10.5 1.5q-35 -13 -65 -36.5t-53 -53.5q-6 -6 -6 -15t-2 -17q-19 -29 -33 -65q-20 -48 -27 -102t8 -105q7 -27 21 -52.5t35 -42.5t46 -25 t50.5 -9.5t50.5 3.5t46 15l1 -1l2 1q0 -1 -1 -1v0l1 1v2l1 -1q9 6 16 9t15 9q3 0 3 1l1 -1q4 5 9.5 8.5t10.5 7.5q14 10 25.5 23t24.5 25q20 26 38 51.5t31 54.5q25 50 34 108t-10 113q-11 32 -30.5 60.5t-48.5 47.5q-32 20 -71 23zM270 493q0 -5 -4.5 -6.5t-7.5 -3.5 q-6 -2 -8 -1q-4 4 -1 8q2 3 6 4.5t8 3.5q7 0 7 -5zM335 365q8 -42 -4 -82t-31 -77q-11 -21 -26.5 -41.5t-38.5 -28.5q-15 -8 -34 -6.5t-31 12.5q-10 7 -16 18.5t-8 21.5q-2 7 -3 16.5t1 15.5l-1 1q1 2 1 6t2 8q-1 2 -0.5 5.5t1.5 6.5q3 13 6 25t9 23q0 4 4 8l1 1l-1 1 q2 2 3 4.5t3 4.5q4 8 10 15.5t11 15.5q3 2 5.5 6t6.5 6q14 14 28.5 23.5t34.5 14.5q10 4 10 13v4q1 2 0.5 1t-0.5 0q-1 4 -2 7.5t1 7.5q6 1 11.5 -2t10.5 -5q14 -8 24 -21t12 -29z" />
<glyph unicode="p" horiz-adv-x="439" d="M152 560q-9 -2 -17 -1.5t-18 1.5q-13 -2 -28.5 -1.5t-28.5 -1.5l-3 -3l-3 -3q-2 -8 -4 -15.5t0 -16.5q2 -3 4 -5t4 -6q3 -8 -3.5 -11.5t-8.5 -8.5h1q-2 -2 -2 -6q0 -3 -2 -5q-1 -11 -3.5 -21.5t0.5 -21.5q3 -8 10.5 -8.5t13.5 -1.5q8 -1 16 0t16 -3q0 -2 1 -3.5t0 -3.5 h-1q-7 -7 -16 -7q-1 -3 -2 -1t-2 0q-1 1 -1.5 -0.5t-2.5 0.5q0 -3 -3 -4q-2 3 2 3q-2 0 -2 1v-3l-1 1v-2h-2l-2 -1l1 -1l-1 -1l-0.5 -0.5t-0.5 0.5q-1 1 -0.5 0t-1.5 0v-1q0 -2 -0.5 -1.5t-0.5 -0.5v-1v-1h-1l-3 -3q-2 -11 -3.5 -23.5t-4.5 -23.5q0 -7 -2 -13.5t0 -12.5 q2 -3 2 -6t1 -6q-1 -12 -2.5 -24t-2.5 -23q-3 -13 -3.5 -24.5t-6.5 -22.5q-5 -14 -5.5 -29t-2.5 -29q-1 -8 -1.5 -15.5t-1.5 -15.5q-2 -20 -3 -38.5t-4 -39.5q1 -11 -1.5 -22t5.5 -20v-1l-1 1l7 -1q5 0 9 4t9 -2v-1q3 -1 6 -2.5t7 0.5v-1l3 2q7 2 7 11q2 6 2.5 13.5t8.5 9.5 q5 -3 5.5 -10.5t0.5 -12.5q0 -4 2.5 -6.5l4.5 -4.5q7 -1 14 -1.5t15 1.5q3 2 6 4.5t3 6.5q0 8 1 15.5t3 13.5q2 11 3.5 19.5t3.5 18.5q2 11 4 23l4 24q3 4 2.5 10t2.5 9q2 17 6 33.5t7 33.5q1 5 6 9q2 1 7 -2q2 -2 2.5 -4t2.5 -4q1 -5 4.5 -4.5t7.5 -0.5q3 0 6.5 1t5.5 1 t3.5 0.5t3.5 0.5q1 -1 2 -1.5t3 -2.5q0 -4 -4 -5l-11 -5.5t-10 -5.5h1q0 -2 -1.5 -4t-0.5 -4q1 -4 7 -8q7 0 14 2t12 3v-1q1 3 2 2t3 2q1 -2 4 1q2 -2 2.5 0.5t1.5 0.5q3 2 6.5 3t6.5 3q5 1 11 4t11 4q1 2 2 1.5t1 1.5q4 1 7.5 3.5t6.5 4.5q1 1 2.5 0.5t1.5 0.5 q29 17 50.5 37.5t41.5 47.5q5 8 9 16.5t7 13.5q4 9 8 19.5t6 21.5q1 3 0.5 5.5t1.5 4.5q2 20 1.5 40t-6.5 38q-1 1 -1 2q0 2 -2 4q-3 11 -10 21t-14 21q-4 2 -6 6l-18 15q-9 6 -23 13q-3 1 -4.5 3t-3.5 1l-1 1q0 1 -2 1q-12 11 -28 11.5t-30 2.5l-2 1h-14q-27 2 -52 1.5 t-52 1.5zM229 424h9q5 0 10 -2v-1q2 2 3.5 1t3.5 -2q1 -2 4 -2t5 -3q2 -1 4.5 -3t3.5 -5q2 2 1.5 -0.5t2.5 -0.5q0 -3 1.5 -4.5t2.5 -3.5q9 -20 1.5 -40.5t-23.5 -36.5q-8 -8 -18.5 -14.5t-21.5 -11.5q-4 -1 -7.5 -2.5t-7.5 -2.5l-2 1v-1l-1 1v-1q-2 2 -5 1.5t-5 3.5 q-4 5 -2 9t3 9v4t2 4q-2 2 0 5q5 18 10 37t10 36v2q2 4 2.5 8t2.5 9q5 7 11 6zM190 418q1 -3 0.5 -4.5t-0.5 -3.5q-2 0 -1 -1.5t-1 -1.5q0 -4 -2 -5h1h-1q-1 -2 -1 -4q0 -1 -2 -3v-1q-2 -2 -2 -5t-4 -4t-6 5q1 2 1 4q0 3 1 5q-1 0 -1 1q0 2 1 2q2 5 3 10.5t5 7.5q3 0 5 -1 t4 -1zM67 402v-1v1z" />
<glyph unicode="q" horiz-adv-x="486" d="M344 545h-2q-23 7 -49.5 5.5t-48.5 -12.5q-2 -1 -4 -2.5t-4 -2.5q-1 -2 -3 -2.5t-4 -2.5q-1 -2 -2.5 -3.5t0.5 -3.5q-2 -5 -1 -9t2 -9q3 -7 7.5 -8.5t10 -0.5t11.5 2.5t11 0.5q1 0 3 -4q1 -3 -2.5 -5t-4.5 -3q-6 -4 -9 -4q-1 -1 -2 -1t-1 -2q-3 -1 -7 -1h-8q-3 2 -5 5.5 t-4 6.5h2q-2 2 -2 4t-1 4q-4 4 -9 7.5t-10 3.5v1q-7 0 -14.5 -2.5t-14.5 -5.5q-18 -10 -35 -21q-20 -12 -35 -28.5t-27 -34.5q-8 -10 -9 -24.5t-7 -23.5q-21 -36 -34.5 -78.5t-13.5 -85.5q1 -6 0.5 -12t1.5 -11q1 -24 6.5 -43t14.5 -41q14 -28 36.5 -51t54.5 -35 q18 -8 34.5 -9t36.5 1q1 1 1.5 -0.5t1.5 0.5q24 3 45.5 10.5t41.5 18.5q2 0 4 1.5t4 2.5h5q4 0 6 -2q5 -8 8.5 -14t8.5 -14l2 -4t2 -3h-1q2 -2 3 -2.5t2 -2.5q3 -1 6 -2.5t5 -1.5q8 2 18 3t12 9t-3.5 11t-3.5 10q1 2 3 2t4 -1l18 -17q2 -3 5 -4t6 -3q10 1 21.5 3.5t22.5 4.5 q4 2 4.5 5t2.5 5q-2 3 -1 4q-1 5 -3.5 7.5t-4.5 6.5q-4 5 -7 9t-3 10q2 8 -3 19q-6 8 -12 16.5t-12 16.5q-3 7 -7.5 10.5t-5.5 11.5q-1 7 5 15q20 32 35.5 68.5t23.5 75.5q2 14 3.5 27t1.5 27q1 30 -7 61t-22 57q-1 2 -2 3.5t-2 3.5v1q-17 25 -39.5 45t-51.5 31zM264 442 q2 -1 1.5 -3t-1.5 -3q-4 -4 -12 -2q-4 2 -4 3q-2 3 1 6q3 2 7.5 2.5t7.5 -3.5zM330 349q3 -9 4 -20q-2 -2 0 -2t1 -2q2 -10 2 -23q0 -12 -2 -22q-2 -2 -1 -3t0 -3q-2 -11 -5 -21t-7 -20q-1 -4 -6 -4q0 1 -0.5 0.5l-0.5 -0.5q-8 3 -15 0t-13 -5l-12 -10t-10 -13q-2 -5 0 -9 t-3 -6q-3 -1 -5.5 1t-4.5 3h-1h-1l1 -1h-1q-2 1 -0.5 0.5t0.5 0.5q-7 -1 -14.5 -4t-9.5 -11q-3 -7 4 -13t9 -13q2 -4 5.5 -7.5t3.5 -8.5h-1q1 -3 -2 -6q-14 -9 -34 -9t-36 11q-9 6 -17 14q-10 11 -14 26q-3 5 -3.5 10t-0.5 10q0 1 0.5 3.5t-1.5 2.5q1 25 9 50.5t20 46.5l4 5 q15 23 30.5 42t37.5 36v-1q2 3 5.5 5t5.5 4q10 7 10 21l3.5 3.5t4.5 1.5q23 -3 39 -21t22 -39z" />
<glyph unicode="r" horiz-adv-x="421" d="M185 546q-2 0 -4.5 -1t-4.5 1q-12 -1 -24.5 -1.5t-23.5 -0.5q-16 -1 -32 -1q-15 0 -30 -1q-2 -3 -5 -2t-4 -3q-2 1 -2.5 -1.5t-1.5 -3.5q-2 -8 -3.5 -16.5t-1.5 -17.5q2 -5 2 -13v-14q0 -6 4.5 -9t8.5 -5q1 -1 1 -4q-3 -5 -7 -5q-4 -3 -8 -4.5t-7 -6.5q0 -4 -1.5 -8.5 t1.5 -8.5q2 -5 6.5 -6.5t9.5 -0.5q3 -2 3.5 -1.5t2.5 1.5q1 -2 1.5 -1t1.5 -1q4 1 7 0l1 1q2 -1 4 0t2 -1v1q2 1 4 0.5t5 -0.5t5 -6q0 -5 -4 -8q-6 -1 -11 -1.5t-10 -2.5q-9 -6 -14 -18q-2 -17 -5 -33t-5 -32q0 -1 -1 -1t1 -1q-2 -6 -2.5 -13.5t-1.5 -13.5q-5 -10 -1 -20 t1 -21q-4 -30 -8.5 -60.5t-7.5 -62.5q0 -8 -2 -16t-2 -16q-2 -11 -3 -21.5t-1 -22.5q-1 -7 -2 -16t5 -15q5 -5 13 -5q7 -2 14.5 -4t14.5 0v2q5 2 7 6.5t4 9.5t2.5 7.5t2.5 6.5q5 3 7 -1q2 -5 2 -12q0 -6 2 -11q1 -3 4.5 -3.5t5.5 -0.5q4 0 7 -0.5t6 2.5q1 2 3 1t0 1l1 1 l-1 1h2q1 5 1 9q0 5 2 10q1 5 2 10.5t1 10.5q7 11 10 20q6 29 11 57t13 57q1 5 1 9q0 5 4 8q6 2 7 -1q18 -31 34 -63t30 -64q4 -6 7 -12t8 -11q7 -14 13 -28.5t12 -29.5l4 -6q3 -3 8 -2.5t9 0.5q5 2 5 7q0 4 4 5q6 2 11 -1.5t10 -5.5q11 2 21.5 3.5t21.5 3.5q10 3 12 12 q-2 15 -7 30l-10 30q-6 23 -14 46.5t-16 46.5q-4 11 -7.5 21.5t-7.5 21.5q-2 6 -5 12t-3 12q2 3 3 6t3 5q35 25 59.5 64t29.5 83q1 26 -4 48.5t-19 43.5q-2 1 -2 3t-2 3q-19 29 -49.5 40t-62.5 16q-3 -1 -5.5 1t-5.5 0q-7 1 -16 1q-8 0 -16 1q-6 -1 -12.5 0t-12.5 -1 q-4 2 -13 2zM232 412q5 -2 8.5 -3t8.5 -4q2 -2 5.5 -4t5.5 -5q11 -14 10.5 -29t-8.5 -29q-6 -14 -18.5 -24.5t-25.5 -18.5q-6 -3 -12 -4.5t-13 -3.5q-2 1 -6.5 3.5t-2.5 7.5q5 14 7 26t7 26q2 10 5.5 21t6.5 21q0 4 1.5 7.5t1.5 7.5q4 6 10 6q3 -1 9 -1zM182 406q0 -2 1 -3 t-1 -3q2 -5 -4 -12q1 -2 -1 -3t0 -3l-4 -4q-1 1 -1.5 0t-1.5 0q-3 0 -3 4q2 6 1.5 13.5t6.5 11.5v-1h1q0 2 1 1t2 1q0 -2 1.5 -0.5t1.5 -1.5z" />
<glyph unicode="s" horiz-adv-x="361" d="M298 558q7 0 9 -2h2h-1v-1q2 1 2 0h2q8 -1 17.5 -1.5t14.5 -11.5q2 -9 0 -17t-2 -17q-4 -13 -4 -29q-2 -9 -12 -13q-5 -2 -11.5 -0.5t-9.5 -4.5l-1 1q-2 -1 -2 -5q3 -3 7.5 -4.5t8.5 -3t7.5 -3.5t3.5 -8q1 -2 -0.5 -4.5t0.5 -3.5h-1v1h1q0 -2 -2 -4.5t-4 -4.5 q-5 -5 -14 -4t-14 -2l2 -1l-2 -1q0 1 -2 1l-1 -1h1q-5 -2 -9.5 -0.5t-8.5 -0.5q-1 2 -4 1t-5 0q-11 0 -18.5 -2.5l-16.5 -5.5q-2 -2 -4.5 -3.5t-4.5 -4.5q-8 -6 -9.5 -16.5t1.5 -19.5q1 -6 4.5 -10.5t6.5 -9.5q3 -2 5.5 -5.5t5.5 -6.5q1 0 1 1q0 -2 3 -5h1q13 -14 25 -30 t19 -34q2 -5 3.5 -10t3.5 -10q4 -9 5 -18.5t3 -18.5q-1 -2 0 -5t0 -6q3 -28 -10 -60q-1 -6 -4.5 -12.5t-5.5 -12.5q-15 -27 -36 -51q-4 -1 -6.5 -4t-5.5 -5q-8 -5 -14 -10t-13 -9l-1 1q-17 -10 -38 -17t-42 -11q-5 0 -15 -2q-4 1 -7 -1q0 1 -1 1q-1 -2 -2 -0.5t-2 0.5h-35 t-35 5q-9 5 -12 14q-1 5 1.5 12t0.5 14l-4 8t0 9l1.5 7.5t2.5 6.5q1 4 1.5 8t2.5 9q6 7 14 6.5t16 -0.5q5 2 5 4q-2 5 -6.5 7t-8.5 4l-6 4t-5 6q-1 4 1.5 5t4.5 4q5 2 10 1t10 -3q2 1 4 -0.5t4 -1.5q10 -3 21.5 -4.5t22.5 0.5q5 2 10 2q6 0 10 4q2 0 3 1t3 1q1 0 2 1.5 t2 1.5q2 1 3 2l2 2q0 1 2 1q5 2 8 6.5t5 9.5q8 15 1 34l-1 2q-4 11 -12 19.5t-18 16t-19.5 15t-16.5 16.5q-7 10 -15.5 20.5t-13.5 21.5q-1 0 -0.5 1.5t-0.5 1.5q-9 18 -14 39.5t-3 41.5q0 11 2.5 21.5t6.5 20.5q1 8 5 14t7 13q5 8 10.5 15t10.5 15q4 2 6 5.5t6 5.5 q11 11 24 21t27 16l1 1h1q21 10 46 16.5t48 7.5q6 -1 13.5 0.5t13.5 -0.5h12q7 0 13 -1zM327 429l1 1z" />
<glyph unicode="t" horiz-adv-x="375" d="M185 559h46q24 0 47 -1q1 2 1.5 1t1.5 -1h34q18 0 35 -2q10 -3 10 -14l-3 -18q1 -8 3.5 -15.5t-0.5 -15.5q-1 -7 -2.5 -16t-3.5 -14h2q-1 -1 -3 -1.5t-2 -2.5v1q-2 1 -2 -1q0 -1 -1 -1q-12 0 -19 -7q-2 -4 3 -7v1q2 -5 3.5 -6.5t1.5 -6.5q2 -6 -5 -11q-9 -5 -20 -3.5 t-22 0.5q-14 0 -26 0.5t-26 0.5q-2 -1 -5 -1q-2 0 -3 -3q-1 -7 5 -8.5t9 -5.5q1 -2 2.5 -3t2.5 -3h-1q5 -5 4 -12t-3 -13q-7 -25 -13 -48.5t-12 -47.5q-1 -7 -0.5 -13.5t-1.5 -14.5q-3 -10 -5.5 -19.5t-4.5 -20.5l-24 -107q-5 -22 -8.5 -43t-8.5 -42q1 -2 -1 -3.5t-2 -3.5h1 q-5 -7 -14.5 -6.5t-17.5 0.5q-3 1 -3.5 3t-2.5 4q-1 8 1 17t-3 17q-1 0 -2.5 1t-2.5 -1q-8 -9 -8 -23l1 1l-1 -1q1 -2 -0.5 -3t-1.5 -3q-1 -8 -8 -11q-9 -3 -19 -1.5t-19 0.5q-9 0 -13 9q-2 6 -2 12t1 12q4 47 8.5 92.5t9.5 93.5q1 3 1 7t1 8q1 5 1.5 10.5t2.5 10.5 q-2 2 -1 3.5t-1 2.5q2 1 2 6q4 26 8 52.5t7 53.5q2 1 1 2.5t1 3.5q1 8 3 17t-1 17q-2 1 -3 2.5t-4 2.5q-15 1 -29.5 -0.5t-28.5 0.5q-1 2 -1.5 1t-1.5 0q-1 2 -2.5 3t-2.5 3q0 6 -5 11t-6 12q2 4 2 9q0 6 5 8q10 3 20.5 2.5t18.5 4.5q1 1 1 3v3q-4 4 -9 4t-9 2l-1 -1 q-1 2 -3 2v-1q-1 0 -1.5 1.5t-1.5 -0.5q0 2 -0.5 1t-1.5 0q-12 7 -11 20q2 11 3 23.5t9 22.5q1 1 2 1t2 1q19 3 36 2.5t37 0.5h26q14 0 27 2q5 -2 10.5 -1t10.5 0zM37 486h2h-2zM201 415l-2 3q-7 2 -8.5 -4t-4.5 -9q-1 -5 -2.5 -10.5t2.5 -9.5q2 -2 3.5 -0.5l2.5 2.5 q12 14 9 28z" />
<glyph unicode="u" horiz-adv-x="502" d="M220 558h-24q-11 0 -24 1q-8 -1 -16 0.5t-16 -1.5q-8 -6 -18 -4t-19 0q-7 -1 -10.5 -6.5t-6.5 -10.5q-18 -71 -32.5 -142t-24.5 -144q-5 -38 -10.5 -76.5t-0.5 -76.5q5 -21 12.5 -43t27.5 -35q14 -11 30 -15t34 -5q4 2 8.5 1t9.5 1q8 2 15 2.5t15 4.5q1 -1 6 2 q11 3 22.5 8.5t21.5 12.5q2 2 4.5 3.5t5.5 -0.5q4 -1 4 -8q-2 -2 -1.5 -3.5t-1.5 -3.5l2 -1q-2 -7 5 -10q-1 -2 2 -3v1q5 -2 10 -1.5t10 0.5q2 0 2 1t2 0q0 1 1 1l-1 1q2 -2 1.5 0.5t1.5 0.5v2h1l-1 1q2 2 3 5.5t3 6.5l-1 1l4.5 9t7.5 7q7 -5 4.5 -12t-1.5 -13 q-2 -3 0.5 -5.5t3.5 -4.5l-1 -1h4q3 -2 6 -1.5t6 -0.5q11 1 21 0t19 4q2 -2 1.5 0.5t2.5 3.5q4 20 7.5 40.5t8.5 40.5q3 9 8.5 17.5t7.5 18.5v1q3 14 5.5 29t6.5 31q8 38 17.5 76t18.5 76l30 109q6 21 12.5 41.5t13.5 41.5q2 2 2 4q0 3 1 6q-2 3 -3 5.5t-5 4.5t-8.5 1.5 t-9.5 -0.5q-15 2 -31 2q-15 0 -31 1l-1 -1q-9 1 -17.5 0.5t-16.5 -2.5q-4 -1 -7 -4.5t-6 -0.5q-2 -2 -5 -1.5t-5 -0.5q-8 -2 -12.5 -9.5t-6.5 -15.5q-8 -29 -15 -60t-15 -62q-11 -53 -20.5 -106t-18.5 -105q1 -6 -2 -12t-3 -12q-1 -3 -4 -4t-5 -2q-7 -1 -11.5 -4.5t-8 -8.5 t-6.5 -9.5t-8 -7.5q-4 -3 -7 -5.5t-8 -3.5q-2 0 -2.5 -1.5t-2.5 0.5h-1q-5 -2 -10.5 0.5t-10.5 5.5q-7 2 -9 8.5t-3 14.5q1 1 -1 3h1q-1 2 -1 4t-1 4q2 1 1 2t0 3q9 42 19 85.5t22 85.5q5 24 12 49t15 49q2 12 8 24t-2 24q-1 0 -2 2l-2 4q-2 13 3.5 25t8.5 24l1 10 q-2 2 -3.5 4t-3.5 3q-4 4 -8 4zM153 149l-1 2l1 -1v-1zM246 123q-2 -4 -6 -6.5t-8 -3.5q-4 0 -4 3q2 4 5.5 7.5t8.5 4.5q3 -1 4 -5z" />
<glyph unicode="v" horiz-adv-x="419" d="M156 559l10 -1l10 -7q0 -4 1 -8t-1 -9q1 -9 0.5 -16.5t0.5 -15.5q0 -4 -0.5 -7t0.5 -5q1 -19 1 -39q0 -19 2 -38q1 -31 2.5 -62.5t4.5 -59.5q1 -1 2 -3t3 -2v1v-1q2 0 4 1l4 2q3 5 3.5 10.5t2.5 10.5q11 35 21 70.5t21 70.5q5 18 11 36.5t11 35.5l5 12.5t9 9.5 q14 2 23 11q7 5 15.5 3.5t15.5 -1.5q14 -1 27.5 -0.5t27.5 -0.5q5 0 7 -4t4 -7q0 -3 -1 -5.5t-2 -6.5q-1 -5 -5 -10.5t0 -11.5q3 -2 6 -4.5t3 -6.5q1 -6 -4 -13q-13 -29 -24.5 -58.5t-23.5 -58.5l-35 -89q-14 -42 -28 -81.5t-26 -81.5l-2.5 -5t-0.5 -5q-2 -11 -10 -20 t-10 -21l-1 1q-4 -14 -6.5 -25.5t-6.5 -25.5q1 -4 -3 -8.5t-7 -6.5q-3 -1 -7 -1q-3 0 -6 -2q-9 1 -16 0.5t-15 -0.5q-7 1 -10.5 2.5t-8.5 7.5q-2 2 -2.5 4.5t-2.5 4.5q1 1 0 2.5t-1 2.5q-4 4 -7 2q-2 -2 -1.5 -5.5t-0.5 -5.5q1 -2 0 -4t0 -4q-2 -3 -5.5 -4t-6.5 -3 q-2 2 -3 0.5t-3 0.5q-3 0 -5 -1q-2 1 -5.5 2.5t-5.5 4.5q-7 17 -9.5 35.5t-8.5 35.5q-7 34 -14.5 68t-15.5 70q-1 2 0 5q-4 23 -8 45t-8 45l-1 2q-3 16 0 32q-6 37 -10.5 73t-9.5 74q-2 13 -3 24.5t-2 23.5q-2 2 -0.5 6t3.5 6q5 5 12.5 3.5t14.5 0.5q2 0 4.5 -0.5t4.5 1.5 l2 -1q9 1 17.5 0t17.5 -1q5 -2 9.5 -5t6.5 -8q1 -4 1 -9q2 -5 2.5 -9.5t5.5 -6.5q4 -2 5 1.5t2 5.5q2 8 1 18t7 15q4 3 8.5 2t8.5 1q2 -2 3.5 -1t4.5 0z" />
<glyph unicode="w" horiz-adv-x="713" d="M156 559q4 0 8 -2q2 1 6 -3q5 -3 5.5 -8.5t0.5 -10.5q0 -11 -0.5 -21t-1.5 -20q1 -3 0 -5.5t0 -4.5q-2 -51 -1.5 -100t2.5 -100q2 -5 5 -2l3 1q2 5 4 11t5 12q0 3 2 6t2 7q23 58 46.5 115t48.5 112q2 3 5 7t7 3q11 2 23.5 1.5t21.5 -2.5q3 -1 4.5 -3t3.5 -6q2 -2 4 -3.5 t5 -1.5q3 1 5 3.5t4 4.5t4.5 1.5t5.5 -0.5l-2 1q3 -1 5 0.5t4 -1.5q6 2 12.5 0.5t12.5 -3.5q2 0 2 -2t2 0q0 -5 0.5 -8t1.5 -7q2 -1 0.5 -1.5t-0.5 -2.5q1 -15 2 -28.5t3 -28.5q2 -29 5 -59t6 -59h2q-1 -8 0 -18t2 -18q2 -3 2 -7q0 -3 3 -5q-1 -1 0 -3t3 -3.5t5 0.5t4.5 5 l3.5 7q11 35 23 70t26 70q5 16 10.5 30.5t10.5 27.5q0 2 0.5 3.5t1.5 3.5q1 1 1 2t2 3q1 5 3.5 10t3.5 10q3 7 9 12t14 5v-1l1 1q2 -2 3.5 -0.5t3.5 -0.5q7 2 12 -2q6 -7 2 -13.5t-4 -13.5q3 -4 7 -4q8 4 10.5 12.5t8.5 13.5q1 4 4 3.5t5 2.5q5 2 9 0.5t9 0.5q4 0 8 1.5 t9 1.5q9 -2 19 -2q11 0 20 -4q6 -4 4 -14q-2 -4 -3 -6.5t-3 -5.5q-50 -97 -92 -196q-14 -35 -28 -68.5t-27 -67.5q-10 -25 -19 -49.5t-17 -50.5q-2 -3 -3 -6t-3 -6q-3 -8 -10 -14.5t-8 -15.5v2l-1 -2q1 0 -1 -2q-2 -5 -3.5 -10t-3.5 -10q-2 -7 -3 -13t-8 -10q-6 -3 -11 -2 t-11 1h-1h-1h-1h-1q-6 1 -13.5 -3t-14.5 -2q-7 -2 -16 0q-5 -1 -10 -0.5t-10 1.5q-3 2 -6.5 3.5t-3.5 5.5q-4 6 -5 12t-3 12q-13 54 -27 108.5t-24 108.5q0 2 -3 4q-6 1 -8 -4.5t-4 -8.5q-30 -55 -58.5 -113.5t-55.5 -115.5q0 -1 -1 -2t-1 -3l-1 -3q-2 0 -5 -2t-5 -3 q-7 -2 -15.5 -1.5t-16.5 0.5q-8 4 -10 7q-2 9 -2 20q0 12 -5 20q-2 -1 -3 0t-1 0q-2 -2 -2.5 -4t-0.5 -4q-1 -10 0 -19t-5 -17l1 -1q-1 0 -2 -1t-3 0q-12 -2 -20 5l1 1q-2 2 -2 6t-2 6q-3 17 -5.5 32.5t-4.5 32.5q-1 5 -2 12t-2 13q-5 22 -6.5 44t-9.5 45q-2 11 -2.5 20.5 t-3.5 20.5q3 3 0 3q-1 2 -0.5 5.5t-1.5 5.5l1 1q-2 1 -1.5 2t-0.5 2h1q0 1 1 1l-2 2q0 9 -1 18.5t-1 18.5q-2 8 -2 15q0 8 -2 16q-1 8 -1.5 15.5t-1.5 15.5q-2 8 -1.5 14t-1.5 14l1 1q-2 16 -3 34.5t-4 36.5q-1 17 -1.5 34.5t-2.5 34.5q2 1 1 2t-1 3q1 4 0.5 6.5t0.5 5.5 l4.5 4.5t5.5 2.5q-3 -2 -5 -3t-3 -4q7 10 19.5 8.5t22.5 0.5q0 1 1 0t2 0q2 0 3.5 1t4.5 1q1 2 9 2q14 0 28 0.5t29 -0.5q1 2 1.5 1t2.5 -1h14z" />
<glyph unicode="x" horiz-adv-x="506" d="M436 554q2 -8 6 -9q6 -2 9.5 2t8.5 7q-1 1 0.5 0.5t2.5 1.5q5 2 10.5 1t11.5 -3v1q2 -2 3.5 -4t3.5 -5q-1 -9 -8.5 -15t-11.5 -14q-54 -65 -104 -133q-18 -26 -36.5 -51t-35.5 -52q-2 -10 0 -17.5t4 -16.5q8 -27 15.5 -55.5t16.5 -57.5q16 -54 36 -108q-1 -3 1 -6t0 -7 q-2 -7 -4 -6l-1 -1q-2 0 -3.5 -1t-3.5 -1q-13 -1 -24 -0.5t-23 0.5q-7 -1 -12.5 3.5t-9.5 10.5q-2 5 -4.5 11t-7.5 11q-1 1 -4 -2q-2 -2 -1 -4.5t-1 -4.5l2 -10l2 -10q-1 -2 -0.5 -4t-1.5 -3q-3 -1 -6 -0.5t-6 0.5q-3 4 -6 4q-11 19 -18 39t-16 39q-3 9 -6 17l-6 16 q-3 1 -3.5 4t-3.5 2q-1 3 -6 1q-15 -23 -29 -46.5t-28 -46.5q0 -1 -1 -1.5t-1 -2.5q-3 -4 -6 -7.5t-6 -9.5q-2 0 -5 -2t-5 -2q-5 -3 -13 -2.5t-14 -2.5q-14 -2 -28.5 1.5t-28.5 1.5q-2 2 -5.5 1t-5.5 1h-1h-1q2 0 0 1.5t-2 2.5q-2 10 3.5 18.5t9.5 17.5q0 2 1.5 2.5t0.5 2.5 q18 29 34 59q16 27 31.5 53t32.5 53q0 2 1.5 4t2.5 4q5 8 9 15t8 15q4 10 2.5 20t-6.5 19q-4 11 -8 25t-9 25q-2 6 -4 7q-1 6 -0.5 11t0.5 10q-12 38 -24.5 77t-23.5 78v8t2 8q5 3 10 4.5t10 -0.5q3 0 3 -2q0 -1 1 -3l2 -4v1q0 -5 4 -5q-2 -2 3 -6q0 -1 5 -1q3 3 2.5 8 t0.5 10q-2 2 -0.5 3.5t1.5 3.5q2 -1 3.5 1t3.5 3h1v-1q5 3 10.5 2.5t10.5 0.5q5 -2 11 -0.5t12 -0.5l1 1q6 -1 11 -4t10 -3v-1q1 -2 2.5 -1t3.5 0q8 -2 17 -1t15 -7q2 -2 2.5 -4.5t1.5 -5.5q5 -26 9 -50t10 -47q1 1 1 -1t1 -2q2 -3 5 -2t5 2q19 26 37 51.5t38 51.5 q5 7 12 14.5t16 10.5q10 1 20.5 0.5t19.5 0.5q3 -1 7 0t7 0v1q6 0 12 -6zM121 550l-1 -3z" />
<glyph unicode="y" horiz-adv-x="490" d="M403 558h1q1 -2 4 -1.5t5 -1.5q7 -1 13 0t14 -1t16 -0.5t14 -3.5h1v-1l1 1q4 -12 -4 -20q-5 -6 -10.5 -12.5t-10.5 -13.5q-11 -15 -23 -29.5t-24 -30.5l-56 -77l-56 -85q-14 -21 -27 -41t-27 -42q-2 -5 -3.5 -10.5t-3.5 -10.5h-1q-26 -38 -50.5 -79.5t-48.5 -83.5l-5 -7 q-1 0 -1.5 -1t-2.5 -2q-5 -5 -11 -5t-11 1l-8 4q0 2 -1 4t-1 5h-2q1 1 -1 3q-6 1 -9.5 -2t-8.5 -6v-1h1l-2 -2v1q-2 0 -2 -1v0q-2 0 -4.5 -1t-5.5 -1h-2q-4 1 -9.5 0t-11.5 -1q-5 0 -9.5 2.5t-5.5 9.5q0 11 6 20q60 124 129 240q2 2 2.5 5.5t0.5 6.5q-11 7 -15 19.5t-9 23.5 q-18 51 -34 102t-30 103q-2 3 -1 5.5t2 4.5q1 3 4 3.5t6 1.5q11 2 19 -1q3 -2 5.5 -6t4.5 -6q0 -9 6 -13q3 0 5 1q4 5 2 10.5t-2 10.5q2 0 2.5 2.5t2.5 4.5q7 6 15.5 4.5t16.5 0.5h23v-1q1 -2 3.5 -1.5t4.5 -1.5q1 1 1 0v0q6 -3 12.5 -2t11.5 -2h1q0 1 2 0q-2 -3 2.5 -6 t3.5 -7q1 -2 0.5 -5t1.5 -5q4 -25 8.5 -48t9.5 -46q3 -3 6 -3q2 0 3 1q19 26 36.5 52.5t36.5 52.5q6 8 13.5 15t18.5 9q13 -2 26 -1t26 -1zM208 550l2 -1z" />
<glyph unicode="z" horiz-adv-x="415" d="M326 558q1 2 1.5 1t2.5 0q5 -2 10.5 -4t10.5 -4q9 -1 17 -1h17h1q3 0 6 -1.5t4 -5.5q1 -2 2.5 -4t0.5 -5q-1 -7 -4 -14.5t2 -13.5q1 -6 0 -10.5t-3 -9.5q-4 -4 -7.5 -5.5t-7.5 -3.5q-2 -2 -3.5 -4t-3.5 -4q2 -2 1 -3t1 -2q0 -2 1 -2.5t1 -2.5q5 -1 6 -5t2 -7 q-1 -7 -2.5 -12.5t-7.5 -9.5q-12 -5 -25 -3.5t-24 -0.5q-3 1 -3 -6q1 -5 6 -6t8 -3q6 -2 8 -8q2 -8 -1 -12q-45 -60 -85 -120t-78 -123q0 -9 4 -13q7 -3 14 -2t14 0q26 -1 53 0.5t53 -0.5q4 -1 7 -6q2 -3 1 -6l-2 -6q-2 -3 -5 -4l-6 -2t-5 -3t0 -7q6 -6 14 -5t11 -9v-7h-1 q-3 -13 -5.5 -26.5t-5.5 -27.5q-1 -7 -9 -11q-2 1 -3.5 0t-4.5 -1q-7 0 -13.5 0.5t-14.5 -1.5l-1 -1q-8 -2 -15 -1.5t-15 1.5q-31 -2 -63 -1t-61 -1q-19 0 -39 -0.5t-39 -1.5q-6 0 -12 -1t-11 2q-2 -2 -2 -1q0 2 -2 3q0 3 -1 5.5t-1 5.5q3 19 4 37.5t3 38.5q4 14 10.5 27 t12.5 27q5 7 8.5 15t7.5 15q9 17 17 33l17 34q0 11 5 24q5 15 13 29t15 28q2 2 2.5 4.5t2.5 4.5q9 19 19.5 37.5t20.5 37.5q1 7 -5 15q-2 1 -5 0.5t-6 -0.5q-17 0 -34 -0.5t-34 -0.5h-8t-8 2q-4 4 -6.5 9t-0.5 11q-1 2 0 2.5t-1 1.5q1 2 1 5h2l2 10q3 0 3 3q6 5 14 4.5 t7 9.5q-2 5 -6.5 5.5t-7.5 2.5l0.5 -0.5t-1.5 -0.5l-1 1q0 1 -1 2l0.5 -0.5t0.5 0.5q-1 1 -1 4q0 2 -1 5t1 5q2 11 3.5 22.5t5.5 21.5q5 7 13 7q23 1 44 2t41 2h4h34q2 0 3.5 0.5t3.5 -0.5h11t12 1l1 -1q14 2 26 1t26 0q6 -1 13 0q2 2 3 0.5t2 0.5q2 -2 2.5 -1t1.5 -1z M66 450l-1 -2z" />
<glyph unicode="&#x2000;" horiz-adv-x="350" />
<glyph unicode="&#x2001;" horiz-adv-x="701" />
<glyph unicode="&#x2002;" horiz-adv-x="350" />
<glyph unicode="&#x2003;" horiz-adv-x="701" />
<glyph unicode="&#x2004;" horiz-adv-x="233" />
<glyph unicode="&#x2005;" horiz-adv-x="175" />
<glyph unicode="&#x2006;" horiz-adv-x="116" />
<glyph unicode="&#x2007;" horiz-adv-x="116" />
<glyph unicode="&#x2008;" horiz-adv-x="87" />
<glyph unicode="&#x2009;" horiz-adv-x="140" />
<glyph unicode="&#x200a;" horiz-adv-x="38" />
<glyph unicode="&#x202f;" horiz-adv-x="140" />
<glyph unicode="&#x205f;" horiz-adv-x="175" />
<glyph unicode="&#xe000;" horiz-adv-x="560" d="M0 560h560v-560h-560v560z" />
</font>
</defs>
</svg>
